<?xml version="1.0" encoding="UTF-8"?>
<svg width="255px" height="251px" viewBox="0 0 255 251" version="1.1" xmlns="http://www.w3.org/2000/svg" xmlns:xlink="http://www.w3.org/1999/xlink">
    <!-- Generator: Sketch 43.2 (39069) - http://www.bohemiancoding.com/sketch -->
    <title>ARVA-ACRs-coins-logo.svg</title>
    <desc>Created with Sketch.</desc>
    <defs>
        <ellipse id="path-1" cx="141.5" cy="143.472786" rx="108.779919" ry="108.492901"></ellipse>
        <ellipse id="path-3" cx="141.5" cy="139.741549" rx="108.779919" ry="105.909736"></ellipse>
        <ellipse id="path-5" cx="141.5" cy="140.028567" rx="90.984787" ry="89.5496957"></ellipse>
        <filter x="-1.4%" y="-1.4%" width="102.7%" height="102.8%" filterUnits="objectBoundingBox" id="filter-6">
            <feGaussianBlur stdDeviation="2" in="SourceAlpha" result="shadowBlurInner1"></feGaussianBlur>
            <feOffset dx="0" dy="1" in="shadowBlurInner1" result="shadowOffsetInner1"></feOffset>
            <feComposite in="shadowOffsetInner1" in2="SourceAlpha" operator="arithmetic" k2="-1" k3="1" result="shadowInnerInner1"></feComposite>
            <feColorMatrix values="0 0 0 0 0   0 0 0 0 0   0 0 0 0 0  0 0 0 0.5 0" type="matrix" in="shadowInnerInner1"></feColorMatrix>
        </filter>
        <path d="M142.07436,96.975829 L152.034583,96.975829 C158.310171,111.683555 164.585758,126.391926 170.861346,141.100297 C173.198765,139.941198 174.520758,138.729852 174.520758,137.226957 C174.520758,135.724063 173.074585,134.264384 170.281195,133.078839 C169.034227,132.361578 165.612179,127.307208 167.073874,127.560056 C179.119277,129.645403 187.049943,133.196878 187.049943,137.226957 C187.049943,141.831104 176.700365,145.810227 161.688886,147.693683 L173.998169,148.452225 L188.283976,181.933233 C178.11808,180.261988 167.77109,179.125464 157.270168,178.563008 L149.074974,158.353269 C154.226479,155.788028 157.764299,150.480165 157.764299,144.347323 C157.764299,135.706002 150.739108,128.70045 142.07436,128.70045 C133.408966,128.70045 126.385068,135.706002 126.385068,144.347323 C126.385068,150.480165 129.922887,155.788028 135.073746,158.353269 L126.877905,178.563008 C116.37569,179.119014 106.031286,180.261988 95.8640974,181.933233 L110.15055,148.452225 L122.459187,147.693683 C107.448355,145.810227 97.098777,141.831104 97.098777,137.226957 C97.098777,133.196878 105.029443,129.645403 117.074199,127.560056 C118.536541,127.307208 115.113846,132.361578 113.867525,133.078839 C111.074781,134.264384 109.627315,135.724063 109.627315,137.226957 C109.627315,138.729852 110.949955,139.941198 113.287374,141.100297 C119.562961,126.391926 125.838549,111.683555 132.114783,96.975829 L142.07436,96.975829" id="path-7"></path>
    </defs>
    <g id="Page-1" stroke="none" stroke-width="1" fill="none" fill-rule="evenodd">
        <g id="01-home" transform="translate(-853.000000, -2590.000000)">
            <g id="Content-Copy" transform="translate(124.000000, 1889.000000)">
                <g id="ARVA-ACRs-coins-logo.svg" transform="translate(715.000000, 687.000000)">
                    <mask id="mask-2" fill="white">
                        <use xlink:href="#path-1"></use>
                    </mask>
                    <use id="Mask" fill="#00CD7E" xlink:href="#path-1"></use>
                    <mask id="mask-4" fill="white">
                        <use xlink:href="#path-3"></use>
                    </mask>
                    <use id="Mask" fill="#00FA9A" xlink:href="#path-3"></use>
                    <path d="M141.5,247.188811 C144.046751,247.188811 146.583675,247.102385 149.107707,246.930281 L147.883194,228.97198 C145.766663,229.116299 143.638145,229.188811 141.5,229.188811 L141.5,247.188811 Z M174.765912,242.078769 C177.193606,241.310696 179.590793,240.458742 181.953621,239.524805 L175.337007,222.785019 C173.364486,223.564683 171.363211,224.27593 169.336335,224.917193 L174.765912,242.078769 Z M204.9277,227.073892 C207.004458,225.601022 209.027987,224.056424 210.994393,222.443262 L199.57796,208.526903 C197.936937,209.873133 196.248108,211.162249 194.51476,212.391566 L204.9277,227.073892 Z M229.033526,203.579464 C230.559988,201.537011 232.01249,199.441725 233.387961,197.297568 L218.237385,187.578512 C217.093603,189.361499 215.885406,191.104367 214.615326,192.803773 L229.033526,203.579464 Z M244.716583,173.619119 C245.522447,171.198678 246.240324,168.747963 246.868454,166.270848 L229.420658,161.846551 C228.90041,163.898217 228.305814,165.928072 227.638276,167.933045 L244.716583,173.619119 Z M250.095295,140.223761 C250.093106,137.665579 249.999414,135.117479 249.81503,132.582693 L231.862463,133.888591 C232.015616,135.994027 232.093481,138.111686 232.095302,140.239168 L250.095295,140.223761 Z M244.671002,106.875463 C243.860569,104.452403 242.962303,102.060968 241.978274,99.7051412 L225.368989,106.642839 C226.184623,108.595517 226.929017,110.5773 227.600515,112.58497 L244.671002,106.875463 Z M228.979097,76.9789445 C227.453182,74.9408252 225.85433,72.9564483 224.185861,71.0296654 L210.578531,82.8127282 C211.968263,84.4176208 213.299684,86.0700805 214.570026,87.7668391 L228.979097,76.9789445 Z M204.853237,53.5045159 C202.778149,52.0354426 200.651048,50.6386541 198.475898,49.317043 L189.129206,64.7001289 C190.94492,65.8033486 192.720499,66.9693063 194.452608,68.1955642 L204.853237,53.5045159 Z M174.636968,38.5116944 C172.214304,37.7485155 169.762469,37.0691787 167.285192,36.4752879 L163.088861,53.9793105 C165.158029,54.4753631 167.205636,55.0426995 169.228672,55.6799891 L174.636968,38.5116944 Z M141.319407,33.4425053 C138.772483,33.446592 136.235483,33.5371299 133.711482,33.7133675 L134.965274,51.6696479 C137.081668,51.5218712 139.210128,51.445913 141.348289,51.4424822 L141.319407,33.4425053 Z M108.065574,38.6058668 C105.637404,39.3784233 103.239902,40.2349387 100.876932,41.1735065 L107.521542,57.9021993 C109.494175,57.1186728 111.495703,56.4036202 113.522964,55.7586185 L108.065574,38.6058668 Z M77.9235171,53.6629859 C75.8498111,55.1389218 73.8294245,56.686459 71.8662464,58.3024289 L83.3057496,72.1998302 C84.9440666,70.8512664 86.6302616,69.559707 88.3610525,68.3278369 L77.9235171,53.6629859 Z M53.8577988,77.1973753 C52.334885,79.2422928 50.8860202,81.3399229 49.5142672,83.4863006 L64.6813376,93.1795961 C65.8219953,91.3948124 67.0271337,89.6500433 68.2942268,87.9486332 L53.8577988,77.1973753 Z M38.2283133,107.178021 C37.4263407,109.600235 36.7124344,112.052617 36.0883459,114.531292 L53.543563,118.926221 C54.060462,116.873267 54.6517661,114.842044 55.3160748,112.835618 L38.2283133,107.178021 Z M32.9049917,140.580211 C32.9113035,143.138606 33.0091469,145.686818 33.1977068,148.22161 L51.1481095,146.886303 C50.9914964,144.780968 50.9101858,142.663333 50.9049369,140.535803 L32.9049917,140.580211 Z M38.3845891,173.921458 C39.1987493,176.342246 40.1006282,178.731316 41.0881487,181.084686 L57.6860789,174.119866 C56.8675357,172.169188 56.1201357,170.189331 55.4455389,168.183515 L38.3845891,173.921458 Z M54.1299423,203.797611 C55.6588845,205.832583 57.2606259,207.813729 58.9318418,209.737203 L72.5195335,197.931499 C71.1274805,196.329326 69.7936223,194.679517 68.5207276,192.985335 L54.1299423,203.797611 Z M78.2875424,227.226154 C80.3651113,228.692051 82.4945854,230.085572 84.6720003,231.40383 L93.9942553,216.005922 C92.1766479,214.9055 90.3990833,213.742268 88.6648998,212.518658 L78.2875424,227.226154 Z M108.541686,242.175587 C110.96575,242.934635 113.418863,243.609794 115.897302,244.199468 L120.063593,226.688271 C117.993424,226.195733 115.944723,225.631878 113.920497,224.998032 L108.541686,242.175587 Z" id="Oval-3" fill="#15C682" fill-rule="nonzero" mask="url(#mask-4)"></path>
                    <g id="Oval-3">
                        <use fill="#00FA9A" fill-rule="evenodd" xlink:href="#path-5"></use>
                        <use fill="#001A27" fill-rule="evenodd" xlink:href="#path-5"></use>
                        <use fill="black" fill-opacity="1" filter="url(#filter-6)" xlink:href="#path-5"></use>
                    </g>
                    <path d="M141.293846,218.958588 C141.47942,218.958588 141.664922,218.95797 141.85035,218.956735 C142.611167,218.951667 143.223823,218.330796 143.218755,217.569979 C143.213688,216.809162 142.592816,216.196506 141.831999,216.201574 C141.652688,216.202768 141.473303,216.203365 141.293846,216.203365 C140.533012,216.203365 139.916235,216.820143 139.916235,217.580976 C139.916235,218.34181 140.533012,218.958588 141.293846,218.958588 Z M159.095238,217.015972 C159.277926,216.975411 159.460439,216.934225 159.642776,216.892416 C160.384365,216.722374 160.847694,215.983351 160.677651,215.241762 C160.507609,214.500174 159.768586,214.036844 159.026997,214.206887 C158.850854,214.247276 158.67454,214.287062 158.498056,214.326246 C157.755308,214.491153 157.286877,215.226953 157.451784,215.9697 C157.616691,216.712447 158.35249,217.180879 159.095238,217.015972 Z M176.045316,211.221111 C176.214371,211.141411 176.383137,211.061131 176.55161,210.980271 C177.237531,210.651059 177.5267,209.828132 177.197488,209.142211 C176.868276,208.45629 176.045348,208.16712 175.359428,208.496332 C175.196705,208.574432 175.0337,208.651972 174.870415,208.728951 C174.182224,209.053392 173.887346,209.874291 174.211786,210.562482 C174.536226,211.250672 175.357125,211.545551 176.045316,211.221111 Z M191.308019,201.825926 C191.455688,201.71059 191.602947,201.594745 191.749793,201.478395 C192.346129,201.0059 192.446521,200.139441 191.974026,199.543105 C191.501531,198.94677 190.635073,198.846377 190.038737,199.318872 C189.896911,199.431245 189.754685,199.54313 189.612063,199.654524 C189.012447,200.122849 188.906015,200.988587 189.37434,201.588203 C189.842665,202.187819 190.708403,202.294251 191.308019,201.825926 Z M204.102597,189.30332 C204.220833,189.158338 204.338551,189.012949 204.455748,188.867156 C204.93243,188.274162 204.838141,187.407018 204.245148,186.930335 C203.652154,186.453653 202.78501,186.547942 202.308327,187.140935 C202.195184,187.281686 202.081537,187.422048 201.967389,187.562018 C201.486541,188.151639 201.57472,189.019426 202.164342,189.500273 C202.753964,189.981121 203.62175,189.892942 204.102597,189.30332 Z M213.793067,174.205633 C213.875358,174.03801 213.957046,173.870097 214.03813,173.701895 C214.368516,173.016538 214.080755,172.193117 213.395399,171.862731 C212.710043,171.532346 211.886621,171.820106 211.556236,172.505463 C211.478011,172.667733 211.399203,172.829726 211.319813,172.991439 C210.984523,173.674409 211.266373,174.499872 211.949343,174.835163 C212.632313,175.170453 213.457776,174.888603 213.793067,174.205633 Z M219.781319,157.330411 C219.823062,157.148232 219.864151,156.965878 219.904584,156.783351 C220.069136,156.040525 219.600352,155.30495 218.857526,155.140398 C218.1147,154.975846 217.379125,155.44463 217.214573,156.187456 C217.175578,156.363489 217.135951,156.539355 217.095694,156.715052 C216.925767,157.456667 217.389212,158.195618 218.130827,158.365544 C218.872442,158.535471 219.611392,158.072026 219.781319,157.330411 Z M221.745613,139.54404 C221.744812,139.356879 221.743349,139.169794 221.741224,138.982787 C221.73258,138.222002 221.108835,137.612272 220.34805,137.620916 C219.587266,137.62956 218.977535,138.253305 218.986179,139.01409 C218.98823,139.194594 218.989643,139.375176 218.990416,139.555833 C218.993672,140.31666 219.613084,140.930792 220.373911,140.927535 C221.134737,140.924279 221.748869,140.304867 221.745613,139.54404 Z M219.620379,121.749037 C219.576851,121.566728 219.532668,121.384601 219.487829,121.202658 C219.305772,120.463927 218.559326,120.012653 217.820596,120.19471 C217.081865,120.376766 216.630591,121.123212 216.812648,121.861943 C216.855891,122.037411 216.898502,122.213057 216.94048,122.388878 C217.117167,123.128911 217.860316,123.585594 218.60035,123.408907 C219.340383,123.23222 219.797066,122.489071 219.620379,121.749037 Z M213.471962,104.915264 C213.388203,104.748559 213.303845,104.58215 213.218891,104.416041 C212.872455,103.738656 212.042485,103.470369 211.3651,103.816805 C210.687715,104.163241 210.419428,104.993211 210.765864,105.670596 C210.847827,105.830857 210.929214,105.991406 211.010023,106.15224 C211.351605,106.832086 212.179635,107.106303 212.85948,106.764721 C213.539326,106.42314 213.813543,105.59511 213.471962,104.915264 Z M203.665975,89.9333851 C203.546659,89.7896261 203.42683,89.6462777 203.306492,89.5033426 C202.816479,88.9213162 201.947419,88.846725 201.365392,89.3367385 C200.783366,89.8267519 200.708775,90.6958119 201.198788,91.2778382 C201.314971,91.4158373 201.430661,91.5542347 201.545855,91.6930279 C202.031767,92.2784827 202.900282,92.3591783 203.485737,91.8732663 C204.071191,91.3873544 204.151887,90.51884 203.665975,89.9333851 Z M190.74459,77.505418 C190.595937,77.3914145 190.446879,77.2779232 190.297419,77.1649464 C189.690476,76.7061577 188.826529,76.826261 188.36774,77.4332048 C187.908951,78.0401485 188.029055,78.9040954 188.635998,79.3628842 C188.780352,79.4720008 188.924316,79.5816142 189.06789,79.6917222 C189.671621,80.1547303 190.536384,80.0406516 190.999392,79.4369204 C191.4624,78.8331891 191.348321,77.9684261 190.74459,77.505418 Z M175.383617,68.2379981 C175.213927,68.1598672 175.043952,68.0823194 174.873697,68.0053566 C174.180408,67.6919594 173.364327,67.9999227 173.05093,68.693212 C172.737533,69.3865013 173.045496,70.202582 173.738785,70.5159792 C173.90323,70.5903151 174.067402,70.665216 174.231301,70.7406802 C174.922397,71.0588836 175.740597,70.7565939 176.0588,70.0654973 C176.377003,69.3744007 176.074714,68.5562015 175.383617,68.2379981 Z M158.439385,62.6086673 C158.256687,62.5696868 158.073821,62.5313295 157.890788,62.4935964 C157.145624,62.3399776 156.417017,62.8195195 156.263398,63.5646833 C156.109779,64.3098471 156.589321,65.0384544 157.334485,65.1920733 C157.511308,65.2285262 157.68797,65.265582 157.864467,65.3032398 C158.608553,65.4619988 159.340453,64.9874978 159.499212,64.2434122 C159.657971,63.4993266 159.18347,62.7674264 158.439385,62.6086673 Z M140.615597,60.8115752 C140.428633,60.8130931 140.241745,60.8152387 140.054936,60.8180114 C139.294186,60.8293028 138.68663,61.4551659 138.697921,62.2159158 C138.709213,62.9766657 139.335076,63.5842218 140.095826,63.5729304 C140.276462,63.5702493 140.457176,63.5681746 140.637966,63.5667068 C141.398775,63.5605298 142.010524,62.9387652 142.004347,62.1779566 C141.998171,61.417148 141.376406,60.8053982 140.615597,60.8115752 Z M122.823433,62.9029479 C122.64029,62.9452382 122.457327,62.9881575 122.274547,63.0317048 C121.534429,63.2080378 121.077391,63.950968 121.253724,64.6910859 C121.430056,65.4312038 122.172987,65.8882419 122.913105,65.711909 C123.089673,65.6698416 123.266419,65.6283807 123.443339,65.5875274 C124.184665,65.4163451 124.646858,64.6766108 124.475676,63.9352847 C124.304493,63.1939585 123.564759,62.7317656 122.823433,62.9029479 Z M105.925053,68.8405323 C105.756455,68.9217692 105.588151,69.0035862 105.420146,69.0859819 C104.737042,69.4209993 104.454862,70.2463498 104.789879,70.9294539 C105.124896,71.612558 105.950247,71.894738 106.633351,71.5597206 C106.795622,71.4801373 106.958181,71.4011128 107.121025,71.3226487 C107.806443,70.9923902 108.094356,70.1690221 107.764098,69.4836046 C107.433839,68.7981871 106.610471,68.5102738 105.925053,68.8405323 Z M90.7555169,78.3543771 C90.6091254,78.4706788 90.4631468,78.5874834 90.317584,78.7047884 C89.7251735,79.1821956 89.6319449,80.0494542 90.109352,80.6418647 C90.5867592,81.2342752 91.4540178,81.3275039 92.0464284,80.8500967 C92.1870144,80.7368023 92.3280022,80.6239911 92.4693891,80.5116653 C93.0651078,80.0383926 93.1643698,79.1718038 92.6910971,78.5760851 C92.2178244,77.9803664 91.3512356,77.8811043 90.7555169,78.3543771 Z M78.0577181,90.9927335 C77.9409194,91.1384751 77.8246409,91.284618 77.708885,91.4311594 C77.237275,92.0281953 77.3389527,92.894504 77.9359886,93.366114 C78.5330245,93.837724 79.3993332,93.7360462 79.8709432,93.1390104 C79.9826931,92.9975403 80.0949481,92.8564542 80.207706,92.7157548 C80.6835052,92.1220521 80.5879255,91.2550494 79.9942227,90.7792502 C79.40052,90.303451 78.5335174,90.3990307 78.0577181,90.9927335 Z M68.4956148,106.177652 C68.4145506,106.3465 68.3340953,106.515636 68.2542506,106.685058 C67.9299013,107.373291 68.2248877,108.194152 68.9131212,108.518501 C69.6013548,108.84285 70.4222153,108.547864 70.7465647,107.85963 C70.8235916,107.696188 70.901208,107.53302 70.9794123,107.370129 C71.3087056,106.684247 71.0196336,105.861285 70.3337519,105.531992 C69.6478702,105.202698 68.8249082,105.49177 68.4956148,106.177652 Z M62.6631012,123.074632 C62.6229164,123.25707 62.583386,123.43968 62.5445111,123.622458 C62.3862305,124.366645 62.8612019,125.09824 63.6053895,125.256521 C64.349577,125.414802 65.081172,124.93983 65.2394526,124.195643 C65.2769447,124.019366 65.3150688,123.843253 65.3538241,123.667305 C65.5174861,122.924282 65.0478215,122.189269 64.3047989,122.025607 C63.5617762,121.861945 62.8267632,122.331609 62.6631012,123.074632 Z M60.8479879,140.909676 C60.8503926,141.095482 60.8534504,141.28121 60.8571609,141.466857 C60.8723644,142.227539 61.5013437,142.831868 62.2620255,142.816665 C63.0227072,142.801461 63.6270367,142.172482 63.6118331,141.4118 C63.6082519,141.23262 63.6053005,141.05336 63.6029796,140.874022 C63.5931341,140.113252 62.9684268,139.504507 62.2076569,139.514353 C61.4468869,139.524198 60.8381424,140.148906 60.8479879,140.909676 Z M63.128785,158.681716 C63.1735826,158.862281 63.2190257,159.042663 63.2651131,159.222859 C63.4536378,159.959965 64.2040102,160.404679 64.9411169,160.216154 C65.6782237,160.02763 66.1229373,159.277257 65.9344127,158.54015 C65.8899656,158.366368 65.8461398,158.192406 65.8029366,158.018267 C65.6197305,157.279821 64.8725833,156.82971 64.1341367,157.012916 C63.3956901,157.196122 62.9455788,157.943269 63.128785,158.681716 Z M69.425452,175.461923 C69.5107699,175.628094 69.5966848,175.793963 69.6831947,175.959528 C70.0355405,176.633858 70.8678252,176.894877 71.5421548,176.542532 C72.2164843,176.190186 72.4775038,175.357901 72.125158,174.683572 C72.0416917,174.523831 71.9588,174.363798 71.8764847,174.203476 C71.5289742,173.526642 70.6985789,173.259672 70.0217449,173.607183 C69.3449108,173.954693 69.0779414,174.785089 69.425452,175.461923 Z M79.3580651,190.355228 C79.4783188,190.49763 79.5990786,190.639619 79.7203422,190.781193 C80.2152849,191.359034 81.0849475,191.426236 81.6627879,190.931293 C82.2406284,190.43635 82.3078303,189.566688 81.8128876,188.988847 C81.6958091,188.852159 81.5792174,188.715071 81.463115,188.577585 C80.9722324,187.996291 80.1030619,187.922999 79.5217685,188.413881 C78.940475,188.904764 78.8671825,189.773934 79.3580651,190.355228 Z M92.386589,202.675156 C92.5359286,202.787691 92.6856671,202.899712 92.8358018,203.011218 C93.4466017,203.46486 94.3095026,203.337458 94.7631448,202.726658 C95.216787,202.115858 95.0893854,201.252958 94.4785855,200.799315 C94.3335797,200.691619 94.1889568,200.583425 94.0447193,200.474735 C93.4370898,200.016855 92.5733235,200.138251 92.1154435,200.74588 C91.6575635,201.35351 91.7789595,202.217276 92.386589,202.675156 Z M107.827409,211.813217 C107.997584,211.889827 108.168037,211.965854 108.338766,212.041294 C109.034687,212.348803 109.848128,212.033932 110.155636,211.338011 C110.463145,210.64209 110.148274,209.828649 109.452353,209.521141 C109.287451,209.448275 109.122816,209.374844 108.95845,209.300848 C108.264678,208.98852 107.449073,209.29774 107.136745,209.991512 C106.824417,210.685283 107.133638,211.500888 107.827409,211.813217 Z M124.821472,217.299392 C125.004446,217.336815 125.187584,217.373613 125.370885,217.409787 C126.117322,217.557095 126.841846,217.071404 126.989153,216.324967 C127.13646,215.57853 126.65077,214.854007 125.904333,214.706699 C125.727247,214.671752 125.550318,214.636201 125.373549,214.600048 C124.628146,214.447596 123.90029,214.928278 123.747838,215.673681 C123.595386,216.419085 124.076068,217.14694 124.821472,217.299392 Z" id="Oval-3" fill="#00FA9A" fill-rule="nonzero"></path>
                    <mask id="mask-8" fill="white">
                        <use xlink:href="#path-7"></use>
                    </mask>
                    <use id="Mask" fill="#00FA9A" xlink:href="#path-7"></use>
                    <path d="M141.516531,264.880833 C141.809878,264.880833 142.103112,264.879857 142.396229,264.877904 C143.598896,264.869894 144.567357,263.888446 144.559346,262.685779 C144.551336,261.483112 143.569888,260.514651 142.367221,260.522661 C142.083773,260.524549 141.800209,260.525493 141.516531,260.525493 C140.313837,260.525493 139.338861,261.500469 139.338861,262.703163 C139.338861,263.905857 140.313837,264.880833 141.516531,264.880833 Z M169.656223,261.810027 C169.945009,261.74591 170.233519,261.680806 170.521749,261.614716 C171.69402,261.34592 172.426432,260.177703 172.157636,259.005432 C171.88884,257.83316 170.720623,257.100748 169.548351,257.369544 C169.269912,257.433389 168.991201,257.496282 168.712223,257.558222 C167.538119,257.818901 166.797642,258.982021 167.05832,260.156125 C167.318999,261.330228 168.482119,262.070706 169.656223,261.810027 Z M196.450195,252.649754 C196.71743,252.523769 196.984208,252.396865 197.250523,252.269046 C198.334797,251.748641 198.791904,250.447792 198.2715,249.363517 C197.751095,248.279242 196.450246,247.822135 195.365971,248.34254 C195.108746,248.465997 194.851074,248.588569 194.59296,248.710254 C193.505097,249.223115 193.038966,250.520759 193.551827,251.608622 C194.064688,252.696485 195.362332,253.162616 196.450195,252.649754 Z M220.576834,237.798241 C220.810263,237.615923 221.043044,237.432801 221.275172,237.248879 C222.217834,236.501978 222.376531,235.132317 221.629631,234.189655 C220.88273,233.246992 219.513069,233.088296 218.570407,233.835196 C218.346214,234.012831 218.121389,234.189694 217.895938,234.365781 C216.94809,235.106089 216.779847,236.474611 217.520156,237.422458 C218.260464,238.370306 219.628986,238.53855 220.576834,237.798241 Z M240.801966,218.003032 C240.988868,217.77385 241.174951,217.544025 241.360211,217.313562 C242.113731,216.376182 241.964683,215.005437 241.027303,214.251918 C240.089924,213.498398 238.719179,213.647446 237.965659,214.584825 C237.786806,214.807319 237.607158,215.029196 237.426718,215.250454 C236.666614,216.182503 236.806004,217.554264 237.738053,218.314367 C238.670102,219.074471 240.041863,218.935081 240.801966,218.003032 Z M256.120253,194.137243 C256.250335,193.872272 256.379465,193.606841 256.507639,193.340955 C257.029899,192.257572 256.575019,190.955942 255.491637,190.433682 C254.408254,189.911423 253.106624,190.366303 252.584364,191.449685 C252.46071,191.706195 252.336134,191.962267 252.210638,192.217896 C251.680625,193.297506 252.126161,194.602364 253.205772,195.132377 C254.285382,195.66239 255.59024,195.216854 256.120253,194.137243 Z M265.58623,167.461601 C265.652215,167.173621 265.717167,166.885363 265.781083,166.596831 C266.041199,165.422603 265.300165,164.259837 264.125937,163.999721 C262.951709,163.739604 261.788943,164.480638 261.528826,165.654866 C261.467184,165.933132 261.404544,166.211134 261.340906,166.488868 C261.072293,167.661181 261.804888,168.829283 262.977201,169.097896 C264.149515,169.366509 265.317617,168.633915 265.58623,167.461601 Z M268.691304,139.345654 C268.690037,139.049797 268.687724,138.754061 268.684365,138.458448 C268.670701,137.255831 267.684711,136.291995 266.482095,136.305659 C265.279479,136.319324 264.315643,137.305314 264.329307,138.50793 C264.332549,138.793263 264.334781,139.07872 264.336004,139.364296 C264.341151,140.566978 265.320292,141.537772 266.522974,141.532625 C267.725657,141.527477 268.696451,140.548337 268.691304,139.345654 Z M265.331823,111.216061 C265.263016,110.927874 265.193173,110.639975 265.122293,110.352367 C264.834506,109.184612 263.654556,108.471258 262.486801,108.759045 C261.319046,109.046833 260.605692,110.226783 260.893479,111.394537 C260.961836,111.671909 261.029195,111.949563 261.095552,112.227493 C261.374851,113.397307 262.54959,114.119212 263.719404,113.839912 C264.889217,113.560613 265.611122,112.385875 265.331823,111.216061 Z M255.612663,84.6059397 C255.48026,84.3424195 255.346912,84.0793673 255.21262,83.8167877 C254.664989,82.7460065 253.353006,82.3219097 252.282225,82.869541 C251.211444,83.4171723 250.787347,84.7291549 251.334978,85.7999362 C251.464541,86.0532707 251.593194,86.3070598 251.720934,86.5612991 C252.260892,87.6359703 253.569807,88.0694414 254.644479,87.5294838 C255.71915,86.9895262 256.152621,85.6806109 255.612663,84.6059397 Z M240.111772,60.9232146 C239.923162,60.6959665 239.733742,60.4693673 239.543516,60.2434215 C238.768923,59.3233787 237.39515,59.205468 236.475107,59.9800607 C235.555064,60.7546534 235.437154,62.1284268 236.211746,63.0484696 C236.395403,63.2666127 236.578281,63.4853856 236.760375,63.7047839 C237.528485,64.6302464 238.901396,64.7578065 239.826858,63.9896974 C240.752321,63.2215882 240.879881,61.8486771 240.111772,60.9232146 Z M219.686189,41.2776065 C219.451205,41.0973945 219.215581,40.9179922 218.979321,40.7394033 C218.019889,40.0141693 216.654199,40.2040236 215.928965,41.1634548 C215.203731,42.122886 215.393585,43.488577 216.353016,44.213811 C216.581204,44.3862979 216.808777,44.5595701 217.035732,44.7336243 C217.990085,45.4655279 219.357066,45.2851972 220.088969,44.3308442 C220.820873,43.3764913 220.640542,42.0095102 219.686189,41.2776065 Z M195.404208,26.6280586 C195.135969,26.5045524 194.867281,26.3819682 194.598148,26.2603085 C193.502226,25.7649034 192.2122,26.251719 191.716795,27.3476415 C191.22139,28.4435641 191.708205,29.7335901 192.804128,30.2289953 C193.064074,30.3465025 193.323591,30.4649026 193.582675,30.5841933 C194.675132,31.0871957 195.968507,30.6093489 196.471509,29.5168925 C196.974512,28.424436 196.496665,27.1310611 195.404208,26.6280586 Z M168.619478,17.729449 C168.330677,17.6678302 168.04161,17.6071966 167.752279,17.5475498 C166.574355,17.3047155 165.422604,18.0627552 165.179769,19.2406788 C164.936935,20.4186024 165.694975,21.5703543 166.872898,21.8131885 C167.152413,21.8708118 167.431673,21.929388 167.710673,21.9889159 C168.886892,22.2398754 170.043849,21.4898042 170.294809,20.3135849 C170.545768,19.1373656 169.795697,17.9804086 168.619478,17.729449 Z M140.444384,14.8886812 C140.148839,14.8910807 139.853415,14.8944724 139.558114,14.8988554 C138.355553,14.9167044 137.395153,15.9060424 137.413002,17.1086039 C137.430851,18.3111653 138.420189,19.2715645 139.622751,19.2537155 C139.908293,19.2494773 140.193958,19.2461977 140.479744,19.2438774 C141.682398,19.2341132 142.649426,18.2512538 142.639662,17.0485995 C142.629898,15.8459453 141.647038,14.8789169 140.444384,14.8886812 Z M112.319278,18.1946354 C112.029773,18.2614861 111.740553,18.3293311 111.451622,18.3981689 C110.281674,18.6769086 109.559208,19.8513014 109.837947,21.0212487 C110.116687,22.1911961 111.29108,22.9136626 112.461027,22.6349229 C112.740139,22.5684246 113.019531,22.502885 113.299199,22.4383058 C114.471057,22.167708 115.201672,20.9983672 114.931074,19.8265099 C114.660476,18.6546527 113.491135,17.9240376 112.319278,18.1946354 Z M85.60703,27.5805193 C85.3405163,27.7089351 85.0744691,27.8382681 84.8088929,27.9685156 C83.7290706,28.498097 83.2830123,29.8027765 83.8125937,30.8825987 C84.3421751,31.962421 85.6468545,32.4084793 86.7266767,31.8788979 C86.9831884,31.7530959 87.2401549,31.6281773 87.497572,31.5041446 C88.5810512,30.9820858 89.0361724,29.6805401 88.5141136,28.5970609 C87.9920549,27.5135817 86.6905092,27.0584605 85.60703,27.5805193 Z M61.627664,42.6196053 C61.3962544,42.8034502 61.1654976,42.9880899 60.9353981,43.1735208 C59.9989404,43.928186 59.8515685,45.299112 60.6062337,46.2355696 C61.3608989,47.1720273 62.7318249,47.3193992 63.6682826,46.564734 C63.8905151,46.385643 64.1133827,46.2073157 64.3368811,46.0297559 C65.2785682,45.2816263 65.4354775,43.9117592 64.6873479,42.9700721 C63.9392182,42.028385 62.5693511,41.8714757 61.627664,42.6196053 Z M41.5555173,62.597788 C41.3708867,62.8281702 41.1870785,63.0591868 41.0040965,63.2908334 C40.2585952,64.2346026 40.4193231,65.6040269 41.3630924,66.3495282 C42.3068616,67.0950295 43.6762859,66.9343016 44.4217872,65.9905323 C44.5984368,65.7669024 44.7758848,65.5438794 44.9541277,65.3214678 C45.7062511,64.3829674 45.5551627,63.0124461 44.6166624,62.2603227 C43.678162,61.5081993 42.3076407,61.6592876 41.5555173,62.597788 Z M26.4401462,86.6014693 C26.3120033,86.8683768 26.1848229,87.1357402 26.0586078,87.4035547 C25.54589,88.4914853 26.0121921,89.7890672 27.1001228,90.301785 C28.1880534,90.8145028 29.4856353,90.3482007 29.9983531,89.26027 C30.120114,89.0019067 30.2428068,88.7439774 30.3664288,88.4864864 C30.8869619,87.4022734 30.430009,86.1013697 29.345796,85.5808366 C28.261583,85.0603035 26.9606793,85.5172563 26.4401462,86.6014693 Z M17.2203537,113.311505 C17.1568312,113.599896 17.0943433,113.888557 17.0328915,114.177485 C16.7826882,115.353866 17.533503,116.51034 18.7098834,116.760544 C19.8862638,117.010747 21.0427384,116.259932 21.2929417,115.083552 C21.3522076,114.804901 21.4124727,114.526508 21.4737354,114.248377 C21.7324453,113.073838 20.9900193,111.91196 19.8154804,111.65325 C18.6409414,111.39454 17.4790636,112.136966 17.2203537,113.311505 Z M14.3510989,141.504392 C14.3549001,141.798107 14.3597337,142.091698 14.3655991,142.385162 C14.3896323,143.587615 15.3838963,144.542914 16.58635,144.518881 C17.7888038,144.494848 18.7441024,143.500584 18.7200692,142.29813 C18.7144082,142.014889 18.7097428,141.731523 18.706074,141.448032 C18.6905106,140.245439 17.7029996,139.283161 16.5004064,139.298725 C15.2978133,139.314288 14.3355355,140.301799 14.3510989,141.504392 Z M17.9564871,169.597687 C18.0273012,169.883116 18.0991358,170.168256 18.1719889,170.453103 C18.4700007,171.61829 19.6561579,172.321275 20.8213453,172.023263 C21.9865326,171.725251 22.6895172,170.539094 22.3915054,169.373906 C22.3212453,169.099198 22.2519674,168.824207 22.1836736,168.548936 C21.894069,167.38163 20.7130102,166.670113 19.5457048,166.959718 C18.3783995,167.249323 17.6668825,168.430381 17.9564871,169.597687 Z M27.9099936,196.123133 C28.0448606,196.385809 28.1806712,196.648008 28.3174226,196.909727 C28.8743959,197.975679 30.1900367,198.388287 31.2559885,197.831314 C32.3219403,197.274341 32.7345489,195.9587 32.1775755,194.892748 C32.0456355,194.640237 31.9146038,194.387264 31.7844832,194.133833 C31.2351532,193.063922 29.9224991,192.641908 28.8525884,193.191238 C27.7826776,193.740568 27.3606636,195.053222 27.9099936,196.123133 Z M43.611051,219.665844 C43.801143,219.890947 43.9920352,220.115398 44.1837236,220.339192 C44.9661082,221.252618 46.3408342,221.358848 47.2542601,220.576463 C48.167686,219.794079 48.273916,218.419353 47.4915314,217.505927 C47.3064586,217.289856 47.1221554,217.073153 46.9386255,216.85582 C46.1626589,215.936936 44.7887108,215.821078 43.8698265,216.597045 C42.9509422,217.373011 42.8350844,218.746959 43.611051,219.665844 Z M64.2059943,239.140669 C64.4420639,239.31856 64.6787643,239.495638 64.9160909,239.671901 C65.8816178,240.388999 67.2456553,240.187608 67.9627538,239.222081 C68.6798523,238.256555 68.4784613,236.892517 67.5129343,236.175419 C67.2837153,236.005177 67.0551014,235.834148 66.827097,235.662335 C65.8665817,234.938538 64.5011763,235.130435 63.7773788,236.090951 C63.0535813,237.051466 63.245479,238.416871 64.2059943,239.140669 Z M88.614194,253.585731 C88.8831986,253.706834 89.1526439,253.827013 89.4225253,253.946266 C90.5226083,254.432363 91.808461,253.934629 92.2945577,252.834546 C92.7806544,251.734463 92.2829202,250.44861 91.1828372,249.962514 C90.9221672,249.847331 90.6619185,249.731253 90.4020956,249.614284 C89.3054107,249.120568 88.0161366,249.609372 87.5224212,250.706057 C87.0287058,251.802741 87.5175092,253.092016 88.614194,253.585731 Z M115.477694,262.258047 C115.766931,262.317203 116.056429,262.375372 116.346184,262.432555 C117.52612,262.665412 118.671416,261.897653 118.904273,260.717716 C119.137131,259.53778 118.369372,258.392484 117.189435,258.159627 C116.909505,258.104383 116.629824,258.048186 116.350395,257.991037 C115.172093,257.750047 114.021529,258.509889 113.780539,259.688191 C113.539549,260.866493 114.299391,262.017057 115.477694,262.258047 Z" id="Oval-3" fill="#00FA9A" fill-rule="nonzero"></path>
                    <path d="M141.450905,265.019435 C141.744252,265.019435 142.037486,265.018458 142.330603,265.016506 C143.53327,265.008496 144.501731,264.027048 144.49372,262.824381 C144.48571,261.621713 143.504262,260.653253 142.301595,260.661263 C142.018147,260.663151 141.734583,260.664095 141.450905,260.664095 C140.248211,260.664095 139.273235,261.639071 139.273235,262.841765 C139.273235,264.044459 140.248211,265.019435 141.450905,265.019435 Z M169.590597,261.948629 C169.879383,261.884512 170.167893,261.819408 170.456123,261.753318 C171.628394,261.484522 172.360806,260.316305 172.09201,259.144034 C171.823214,257.971762 170.654997,257.23935 169.482725,257.508146 C169.204286,257.571991 168.925575,257.634884 168.646597,257.696824 C167.472493,257.957502 166.732016,259.120623 166.992694,260.294727 C167.253373,261.46883 168.416493,262.209308 169.590597,261.948629 Z M196.384569,252.788356 C196.651804,252.662371 196.918582,252.535467 197.184897,252.407648 C198.269171,251.887243 198.726278,250.586394 198.205874,249.502119 C197.685469,248.417844 196.38462,247.960737 195.300345,248.481142 C195.04312,248.604598 194.785448,248.727171 194.527334,248.848856 C193.439471,249.361717 192.97334,250.65936 193.486201,251.747224 C193.999062,252.835087 195.296706,253.301218 196.384569,252.788356 Z M220.511207,237.936843 C220.744637,237.754524 220.977418,237.571402 221.209546,237.387481 C222.152208,236.64058 222.310905,235.270919 221.564005,234.328257 C220.817104,233.385594 219.447443,233.226898 218.504781,233.973798 C218.280588,234.151433 218.055763,234.328296 217.830312,234.504382 C216.882464,235.244691 216.714221,236.613212 217.45453,237.56106 C218.194838,238.508908 219.56336,238.677152 220.511207,237.936843 Z M240.73634,218.141634 C240.923242,217.912452 241.109325,217.682627 241.294585,217.452164 C242.048105,216.514784 241.899057,215.144039 240.961677,214.39052 C240.024298,213.637 238.653553,213.786048 237.900033,214.723427 C237.72118,214.94592 237.541532,215.167798 237.361092,215.389056 C236.600988,216.321105 236.740378,217.692866 237.672427,218.452969 C238.604476,219.213073 239.976237,219.073683 240.73634,218.141634 Z M256.054627,194.275845 C256.184709,194.010874 256.313839,193.745443 256.442013,193.479556 C256.964273,192.396174 256.509393,191.094544 255.426011,190.572284 C254.342628,190.050025 253.040998,190.504904 252.518738,191.588287 C252.395084,191.844797 252.270508,192.100868 252.145012,192.356498 C251.614999,193.436108 252.060535,194.740966 253.140146,195.270979 C254.219756,195.800992 255.524614,195.355455 256.054627,194.275845 Z M265.520604,167.600203 C265.586589,167.312223 265.651541,167.023965 265.715457,166.735433 C265.975573,165.561205 265.234539,164.398439 264.060311,164.138322 C262.886083,163.878206 261.723317,164.61924 261.4632,165.793468 C261.401558,166.071734 261.338918,166.349735 261.27528,166.627469 C261.006667,167.799783 261.739262,168.967885 262.911575,169.236498 C264.083889,169.505111 265.251991,168.772517 265.520604,167.600203 Z M268.625677,139.484256 C268.624411,139.188399 268.622098,138.892663 268.618739,138.597049 C268.605075,137.394433 267.619085,136.430597 266.416469,136.444261 C265.213853,136.457925 264.250017,137.443915 264.263681,138.646532 C264.266923,138.931865 264.269155,139.217321 264.270378,139.502897 C264.275525,140.70558 265.254666,141.676374 266.457348,141.671227 C267.660031,141.666079 268.630825,140.686939 268.625677,139.484256 Z M265.266197,111.354663 C265.19739,111.066476 265.127547,110.778577 265.056667,110.490968 C264.76888,109.323214 263.588929,108.60986 262.421175,108.897647 C261.25342,109.185434 260.540066,110.365385 260.827853,111.533139 C260.89621,111.810511 260.963569,112.088165 261.029926,112.366095 C261.309225,113.535909 262.483964,114.257814 263.653778,113.978514 C264.823591,113.699215 265.545496,112.524476 265.266197,111.354663 Z M255.547037,84.7445415 C255.414634,84.4810214 255.281286,84.2179692 255.146994,83.9553896 C254.599363,82.8846083 253.28738,82.4605115 252.216599,83.0081429 C251.145818,83.5557742 250.721721,84.8677568 251.269352,85.938538 C251.398915,86.1918726 251.527568,86.4456617 251.655308,86.699901 C252.195266,87.7745722 253.504181,88.2080433 254.578853,87.6680857 C255.653524,87.1281281 256.086995,85.8192128 255.547037,84.7445415 Z M240.046146,61.0618165 C239.857536,60.8345683 239.668116,60.6079692 239.47789,60.3820234 C238.703297,59.4619806 237.329524,59.3440699 236.409481,60.1186626 C235.489438,60.8932552 235.371528,62.2670287 236.14612,63.1870715 C236.329777,63.4052146 236.512655,63.6239875 236.694749,63.8433858 C237.462859,64.7688483 238.83577,64.8964084 239.761232,64.1282992 C240.686695,63.3601901 240.814255,61.987279 240.046146,61.0618165 Z M219.620563,41.4162084 C219.385579,41.2359964 219.149955,41.0565941 218.913695,40.8780052 C217.954263,40.1527712 216.588572,40.3426255 215.863338,41.3020567 C215.138105,42.2614879 215.327959,43.6271788 216.28739,44.3524128 C216.515577,44.5248997 216.743151,44.698172 216.970106,44.8722262 C217.924459,45.6041298 219.29144,45.423799 220.023343,44.4694461 C220.755247,43.5150931 220.574916,42.1481121 219.620563,41.4162084 Z M195.338582,26.7666605 C195.070343,26.6431543 194.801655,26.5205701 194.532522,26.3989104 C193.4366,25.9035053 192.146574,26.3903208 191.651169,27.4862434 C191.155764,28.582166 191.642579,29.872192 192.738502,30.3675971 C192.998448,30.4851043 193.257965,30.6035045 193.517049,30.7227951 C194.609506,31.2257976 195.902881,30.7479508 196.405883,29.6554943 C196.908886,28.5630379 196.431039,27.2696629 195.338582,26.7666605 Z M168.553852,17.8680509 C168.265051,17.8064321 167.975984,17.7457985 167.686653,17.6861516 C166.508729,17.4433174 165.356978,18.2013571 165.114143,19.3792807 C164.871309,20.5572043 165.629349,21.7089561 166.807272,21.9517904 C167.086787,22.0094136 167.366047,22.0679899 167.645047,22.1275177 C168.821266,22.3784773 169.978223,21.6284061 170.229183,20.4521868 C170.480142,19.2759675 169.730071,18.1190105 168.553852,17.8680509 Z M140.378758,15.0272831 C140.083213,15.0296826 139.787789,15.0330743 139.492488,15.0374573 C138.289926,15.0553062 137.329527,16.0446443 137.347376,17.2472057 C137.365225,18.4497671 138.354563,19.4101663 139.557125,19.3923174 C139.842667,19.3880792 140.128332,19.3847996 140.414117,19.3824793 C141.616772,19.372715 142.5838,18.3898556 142.574036,17.1872014 C142.564272,15.9845472 141.581412,15.0175188 140.378758,15.0272831 Z M112.253652,18.3332373 C111.964147,18.400088 111.674927,18.467933 111.385996,18.5367708 C110.216048,18.8155104 109.493582,19.9899033 109.772321,21.1598506 C110.051061,22.3297979 111.225454,23.0522645 112.395401,22.7735248 C112.674513,22.7070265 112.953905,22.6414869 113.233573,22.5769077 C114.405431,22.3063099 115.136046,21.1369691 114.865448,19.9651118 C114.59485,18.7932546 113.425509,18.0626395 112.253652,18.3332373 Z M85.5414039,27.7191212 C85.2748902,27.8475369 85.008843,27.97687 84.7432668,28.1071175 C83.6634446,28.6366989 83.2173862,29.9413783 83.7469676,31.0212006 C84.276549,32.1010228 85.5812285,32.5470812 86.6610507,32.0174998 C86.9175623,31.8916978 87.1745289,31.7667792 87.431946,31.6427465 C88.5154252,31.1206877 88.9705464,29.819142 88.4484876,28.7356628 C87.9264288,27.6521836 86.6248831,27.1970624 85.5414039,27.7191212 Z M61.562038,42.7582072 C61.3306284,42.9420521 61.0998716,43.1266918 60.869772,43.3121227 C59.9333144,44.0667879 59.7859425,45.4377138 60.5406077,46.3741715 C61.2952729,47.3106292 62.6661989,47.4580011 63.6026565,46.7033358 C63.824889,46.5242448 64.0477566,46.3459176 64.271255,46.1683578 C65.2129421,45.4202282 65.3698515,44.050361 64.6217218,43.1086739 C63.8735922,42.1669868 62.503725,42.0100775 61.562038,42.7582072 Z M41.4898912,62.7363899 C41.3052606,62.9667721 41.1214525,63.1977887 40.9384704,63.4294353 C40.1929692,64.3732045 40.3536971,65.7426288 41.2974663,66.4881301 C42.2412356,67.2336314 43.6106599,67.0729035 44.3561612,66.1291342 C44.5328108,65.9055042 44.7102588,65.6824813 44.8885017,65.4600697 C45.6406251,64.5215693 45.4895367,63.151048 44.5510363,62.3989246 C43.612536,61.6468011 42.2420146,61.7978895 41.4898912,62.7363899 Z M26.3745201,86.7400712 C26.2463772,87.0069787 26.1191969,87.274342 25.9929817,87.5421566 C25.480264,88.6300872 25.9465661,89.9276691 27.0344967,90.4403869 C28.1224273,90.9531047 29.4200092,90.4868025 29.932727,89.3988719 C30.054488,89.1405086 30.1771807,88.8825792 30.3008027,88.6250883 C30.8213358,87.5408753 30.364383,86.2399716 29.28017,85.7194385 C28.195957,85.1989054 26.8950532,85.6558582 26.3745201,86.7400712 Z M17.1547276,113.450107 C17.0912052,113.738498 17.0287172,114.027159 16.9672654,114.316087 C16.7170621,115.492468 17.467877,116.648942 18.6442574,116.899146 C19.8206378,117.149349 20.9771124,116.398534 21.2273157,115.222154 C21.2865816,114.943503 21.3468467,114.66511 21.4081093,114.386979 C21.6668193,113.21244 20.9243933,112.050562 19.7498543,111.791852 C18.5753154,111.533142 17.4134376,112.275568 17.1547276,113.450107 Z M14.2854729,141.642994 C14.289274,141.936709 14.2941077,142.2303 14.2999731,142.523763 C14.3240062,143.726217 15.3182703,144.681516 16.520724,144.657483 C17.7231777,144.63345 18.6784763,143.639186 18.6544432,142.436732 C18.6487822,142.153491 18.6441168,141.870124 18.640448,141.586634 C18.6248846,140.384041 17.6373736,139.421763 16.4347804,139.437327 C15.2321872,139.45289 14.2699095,140.440401 14.2854729,141.642994 Z M17.890861,169.736289 C17.9616752,170.021718 18.0335097,170.306858 18.1063628,170.591704 C18.4043746,171.756892 19.5905319,172.459876 20.7557192,172.161865 C21.9209065,171.863853 22.6238912,170.677696 22.3258794,169.512508 C22.2556192,169.2378 22.1863414,168.962809 22.1180476,168.687538 C21.828443,167.520232 20.6473841,166.808715 19.4800788,167.09832 C18.3127735,167.387924 17.6012564,168.568983 17.890861,169.736289 Z M27.8443676,196.261735 C27.9792346,196.524411 28.1150452,196.78661 28.2517965,197.048329 C28.8087699,198.114281 30.1244106,198.526889 31.1903624,197.969916 C32.2563142,197.412943 32.6689228,196.097302 32.1119495,195.03135 C31.9800095,194.778839 31.8489778,194.525866 31.7188572,194.272435 C31.1695271,193.202524 29.8568731,192.78051 28.7869623,193.32984 C27.7170516,193.87917 27.2950375,195.191824 27.8443676,196.261735 Z M43.545425,219.804446 C43.735517,220.029549 43.9264091,220.254 44.1180975,220.477794 C44.9004821,221.39122 46.2752082,221.49745 47.1886341,220.715065 C48.10206,219.932681 48.2082899,218.557955 47.4259054,217.644529 C47.2408325,217.428458 47.0565293,217.211754 46.8729995,216.994422 C46.0970329,216.075538 44.7230848,215.95968 43.8042004,216.735647 C42.8853161,217.511613 42.7694584,218.885561 43.545425,219.804446 Z M64.1403682,239.279271 C64.3764379,239.457161 64.6131382,239.63424 64.8504648,239.810503 C65.8159918,240.527601 67.1800292,240.32621 67.8971277,239.360683 C68.6142262,238.395156 68.4128352,237.031119 67.4473083,236.31402 C67.2180893,236.143779 66.9894754,235.97275 66.7614709,235.800937 C65.8009556,235.07714 64.4355503,235.269037 63.7117528,236.229553 C62.9879552,237.190068 63.1798529,238.555473 64.1403682,239.279271 Z M88.548568,253.724333 C88.8175726,253.845436 89.0870178,253.965615 89.3568993,254.084868 C90.4569823,254.570965 91.7428349,254.073231 92.2289316,252.973148 C92.7150283,251.873065 92.2172941,250.587212 91.1172112,250.101116 C90.8565412,249.985933 90.5962925,249.869855 90.3364695,249.752886 C89.2397847,249.25917 87.9505106,249.747974 87.4567952,250.844658 C86.9630798,251.941343 87.4518831,253.230617 88.548568,253.724333 Z M115.412068,262.396649 C115.701305,262.455804 115.990803,262.513974 116.280558,262.571157 C117.460494,262.804014 118.60579,262.036255 118.838647,260.856318 C119.071505,259.676382 118.303746,258.531086 117.123809,258.298229 C116.843879,258.242985 116.564198,258.186788 116.284769,258.129638 C115.106467,257.888649 113.955903,258.648491 113.714913,259.826793 C113.473923,261.005095 114.233765,262.155659 115.412068,262.396649 Z" id="Oval-3" fill-opacity="0.317368659" fill="#00FA9A" fill-rule="nonzero" transform="translate(141.455492, 140.023322) rotate(7.000000) translate(-141.455492, -140.023322) "></path>
                </g>
            </g>
        </g>
    </g>
</svg>