<?xml version="1.0" encoding="UTF-8"?>
<svg width="22px" height="22px" viewBox="0 0 22 22" version="1.1" xmlns="http://www.w3.org/2000/svg" xmlns:xlink="http://www.w3.org/1999/xlink">
    <!-- Generator: Sketch 43.2 (39069) - http://www.bohemiancoding.com/sketch -->
    <title>if_clock_383162</title>
    <desc>Created with Sketch.</desc>
    <defs></defs>
    <g id="Page-1" stroke="none" stroke-width="1" fill="none" fill-rule="evenodd">
        <g id="02-status" transform="translate(-127.000000, -608.000000)" fill-rule="nonzero" fill="#00FA9A">
            <g id="CONTENT" transform="translate(126.000000, 161.000000)">
                <g id="3" transform="translate(0.000000, 410.000000)">
                    <g id="if_clock_383162" transform="translate(1.000000, 37.000000)">
                        <path d="M11.4230769,9.42192308 L11.4230769,4.23076923 L10.1538462,4.23076923 L10.1538462,9.44730769 C9.82088462,9.59157692 9.54842308,9.84246154 9.36734615,10.1538462 L9.30769231,10.1538462 L9.30769231,10.2634231 C9.19896154,10.4868077 9.13253846,10.7347308 9.13253846,11 C9.13253846,11.2652692 9.19896154,11.5131923 9.30769231,11.7361538 L9.30769231,11.8461538 L9.36734615,11.8461538 C9.66053846,12.3496154 10.2003846,12.6923077 10.8248462,12.6923077 C11.4493077,12.6923077 11.9891538,12.3496154 12.2823462,11.8461538 L15.6538462,11.8461538 L15.6538462,10.1538462 L12.2823462,10.1538462 C12.0881538,9.82046154 11.7877692,9.56026923 11.4230769,9.42192308 Z" id="Shape"></path>
                        <path d="M10.8248462,0.0693846154 C4.87596154,0.0693846154 0.0363846154,4.90896154 0.0363846154,10.8578462 C0.0363846154,16.8067308 4.87596154,21.6463077 10.8248462,21.6463077 C16.7737308,21.6463077 21.6133077,16.8067308 21.6133077,10.8578462 C21.6133077,4.90896154 16.7733077,0.0693846154 10.8248462,0.0693846154 Z M10.8248462,19.5886154 C6.01083432,19.5886154 2.09407692,15.671858 2.09407692,10.8578462 C2.09407692,6.04383432 6.01083432,2.12707692 10.8248462,2.12707692 C15.638858,2.12707692 19.5556154,6.04383432 19.5556154,10.8578462 C19.5556154,15.671858 15.638858,19.5886154 10.8248462,19.5886154 Z" id="Shape"></path>
                    </g>
                </g>
            </g>
        </g>
    </g>
</svg>