
<svg xmlns="http://www.w3.org/2000/svg" width="60" height="60" xmlns:xlink="http://www.w3.org/1999/xlink" viewBox="0 0 60 60">
  <defs>
    <circle id="a" cx="30" cy="30" r="30"/>
  </defs>
  <g fill="none" fill-rule="evenodd">
    <use fill="#001724" xlink:href="#a"/>
    <circle cx="30" cy="30" r="29" stroke="#00FA9A" stroke-width="2"/>
    <path fill="#00FA9A" d="M25.554 43.057v-12.76h-2.387c-.293 0-.53-.23-.53-.515v-3.82c0-.34.264-.508.53-.51h2.39v-2.058c0-1.084.012-3.034 1.06-4.277C27.674 17.85 29.14 17 31.56 17c3.728 0 5.334.483 5.392.5.254.08.41.328.362.582l-.73 3.913c-.056.296-.36.484-.66.405.004 0-1.155-.3-2.215-.3-.646 0-1.624.133-1.624.88v2.467h4.125c.31 0 .554.258.53.556l-.324 3.82c-.022.27-.25.473-.527.473h-3.804v12.76c0 .285-.24.516-.53.516h-5.47c-.294 0-.532-.23-.532-.515z"/>
  </g>
</svg>