<?xml version="1.0" encoding="UTF-8"?>
<svg width="686px" height="273px" viewBox="0 0 686 273" version="1.1" xmlns="http://www.w3.org/2000/svg" xmlns:xlink="http://www.w3.org/1999/xlink">
    <!-- Generator: Sketch 43.2 (39069) - http://www.bohemiancoding.com/sketch -->
    <title>goal-vector</title>
    <desc>Created with Sketch.</desc>
    <defs></defs>
    <g id="Page-1" stroke="none" stroke-width="1" fill="none" fill-rule="evenodd">
        <g id="01-home" transform="translate(-342.000000, -5987.000000)">
            <g id="Early-access" transform="translate(-5.000000, 5664.000000)">
                <g id="Content" transform="translate(341.000000, 101.000000)">
                    <g id="goal-vector" transform="translate(6.000000, 222.000000)">
                        <g id="Goal" transform="translate(11.000000, 0.000000)">
                            <path d="M266.361816,9.52929688 L267.263184,0.515625 L276.505371,0.515625 L276.505371,1.92480469 L268.570801,1.92480469 L267.92334,8.17089844 C268.913579,7.49381172 270.073073,7.15527344 271.401855,7.15527344 C273.069182,7.15527344 274.397944,7.69693469 275.388184,8.78027344 C276.378423,9.86361219 276.873535,11.3066316 276.873535,13.109375 C276.873535,15.0559993 276.391118,16.5667264 275.42627,17.6416016 C274.461421,18.7164767 273.103036,19.2539062 271.351074,19.2539062 C269.742993,19.2539062 268.439621,18.805343 267.440918,17.9082031 C266.442215,17.0110632 265.870932,15.7542399 265.727051,14.1376953 L267.187012,14.1376953 C267.330893,15.3987693 267.758297,16.3530241 268.469238,17.0004883 C269.180179,17.6479525 270.140782,17.9716797 271.351074,17.9716797 C272.671393,17.9716797 273.667965,17.5527386 274.34082,16.7148438 C275.013675,15.8769489 275.350098,14.6836015 275.350098,13.1347656 C275.350098,11.7805922 274.973474,10.676111 274.220215,9.82128906 C273.466956,8.96646708 272.438646,8.5390625 271.135254,8.5390625 C270.415849,8.5390625 269.789553,8.63004466 269.256348,8.81201172 C268.723142,8.99397877 268.160322,9.34732811 267.567871,9.87207031 L266.361816,9.52929688 Z M290.88916,11.2939453 C290.88916,13.9007292 290.410975,15.8790623 289.45459,17.2290039 C288.498205,18.5789456 287.089039,19.2539062 285.227051,19.2539062 C283.398917,19.2539062 281.998215,18.5916407 281.024902,17.2670898 C280.05159,15.942539 279.552246,14.0149866 279.526855,11.484375 L279.526855,8.17089844 C279.526855,5.57257815 280.009273,3.60482439 280.974121,2.26757812 C281.93897,0.930331855 283.348135,0.26171875 285.20166,0.26171875 C287.029794,0.26171875 288.426265,0.907057349 289.391113,2.19775391 C290.355962,3.48845046 290.855306,5.39061243 290.88916,7.90429688 L290.88916,11.2939453 Z M289.365723,7.98046875 C289.365723,5.86457275 289.020837,4.26497937 288.331055,3.18164062 C287.641273,2.09830187 286.598152,1.55664062 285.20166,1.55664062 C283.83056,1.55664062 282.798018,2.08560669 282.104004,3.14355469 C281.40999,4.20150269 281.054525,5.76301051 281.037598,7.828125 L281.037598,11.4589844 C281.037598,13.5664168 281.395179,15.1787054 282.110352,16.2958984 C282.825524,17.4130915 283.864414,17.9716797 285.227051,17.9716797 C286.581224,17.9716797 287.607418,17.4257867 288.305664,16.3339844 C289.00391,15.242182 289.357259,13.6425887 289.365723,11.5351562 L289.365723,7.98046875 Z M305.29834,11.2939453 C305.29834,13.9007292 304.820155,15.8790623 303.86377,17.2290039 C302.907385,18.5789456 301.498219,19.2539062 299.63623,19.2539062 C297.808096,19.2539062 296.407394,18.5916407 295.434082,17.2670898 C294.46077,15.942539 293.961426,14.0149866 293.936035,11.484375 L293.936035,8.17089844 C293.936035,5.57257815 294.418452,3.60482439 295.383301,2.26757812 C296.348149,0.930331855 297.757315,0.26171875 299.61084,0.26171875 C301.438974,0.26171875 302.835444,0.907057349 303.800293,2.19775391 C304.765142,3.48845046 305.264486,5.39061243 305.29834,7.90429688 L305.29834,11.2939453 Z M303.774902,7.98046875 C303.774902,5.86457275 303.430016,4.26497937 302.740234,3.18164062 C302.050452,2.09830187 301.007331,1.55664062 299.61084,1.55664062 C298.239739,1.55664062 297.207197,2.08560669 296.513184,3.14355469 C295.81917,4.20150269 295.463705,5.76301051 295.446777,7.828125 L295.446777,11.4589844 C295.446777,13.5664168 295.804358,15.1787054 296.519531,16.2958984 C297.234704,17.4130915 298.273593,17.9716797 299.63623,17.9716797 C300.990404,17.9716797 302.016598,17.4257867 302.714844,16.3339844 C303.413089,15.242182 303.766439,13.6425887 303.774902,11.5351562 L303.774902,7.98046875 Z M326.029785,11.2939453 C326.029785,13.9007292 325.5516,15.8790623 324.595215,17.2290039 C323.63883,18.5789456 322.229664,19.2539062 320.367676,19.2539062 C318.539542,19.2539062 317.13884,18.5916407 316.165527,17.2670898 C315.192215,15.942539 314.692871,14.0149866 314.66748,11.484375 L314.66748,8.17089844 C314.66748,5.57257815 315.149898,3.60482439 316.114746,2.26757812 C317.079595,0.930331855 318.48876,0.26171875 320.342285,0.26171875 C322.170419,0.26171875 323.56689,0.907057349 324.531738,2.19775391 C325.496587,3.48845046 325.995931,5.39061243 326.029785,7.90429688 L326.029785,11.2939453 Z M324.506348,7.98046875 C324.506348,5.86457275 324.161462,4.26497937 323.47168,3.18164062 C322.781898,2.09830187 321.738777,1.55664062 320.342285,1.55664062 C318.971185,1.55664062 317.938643,2.08560669 317.244629,3.14355469 C316.550615,4.20150269 316.19515,5.76301051 316.178223,7.828125 L316.178223,11.4589844 C316.178223,13.5664168 316.535804,15.1787054 317.250977,16.2958984 C317.966149,17.4130915 319.005039,17.9716797 320.367676,17.9716797 C321.721849,17.9716797 322.748043,17.4257867 323.446289,16.3339844 C324.144535,15.242182 324.497884,13.6425887 324.506348,11.5351562 L324.506348,7.98046875 Z M340.438965,11.2939453 C340.438965,13.9007292 339.96078,15.8790623 339.004395,17.2290039 C338.04801,18.5789456 336.638844,19.2539062 334.776855,19.2539062 C332.948721,19.2539062 331.548019,18.5916407 330.574707,17.2670898 C329.601395,15.942539 329.102051,14.0149866 329.07666,11.484375 L329.07666,8.17089844 C329.07666,5.57257815 329.559077,3.60482439 330.523926,2.26757812 C331.488774,0.930331855 332.89794,0.26171875 334.751465,0.26171875 C336.579599,0.26171875 337.976069,0.907057349 338.940918,2.19775391 C339.905767,3.48845046 340.405111,5.39061243 340.438965,7.90429688 L340.438965,11.2939453 Z M338.915527,7.98046875 C338.915527,5.86457275 338.570641,4.26497937 337.880859,3.18164062 C337.191077,2.09830187 336.147956,1.55664062 334.751465,1.55664062 C333.380364,1.55664062 332.347822,2.08560669 331.653809,3.14355469 C330.959795,4.20150269 330.60433,5.76301051 330.587402,7.828125 L330.587402,11.4589844 C330.587402,13.5664168 330.944983,15.1787054 331.660156,16.2958984 C332.375329,17.4130915 333.414218,17.9716797 334.776855,17.9716797 C336.131029,17.9716797 337.157223,17.4257867 337.855469,16.3339844 C338.553714,15.242182 338.907064,13.6425887 338.915527,11.5351562 L338.915527,7.98046875 Z M354.848145,11.2939453 C354.848145,13.9007292 354.369959,15.8790623 353.413574,17.2290039 C352.457189,18.5789456 351.048024,19.2539062 349.186035,19.2539062 C347.357901,19.2539062 345.957199,18.5916407 344.983887,17.2670898 C344.010575,15.942539 343.511231,14.0149866 343.48584,11.484375 L343.48584,8.17089844 C343.48584,5.57257815 343.968257,3.60482439 344.933105,2.26757812 C345.897954,0.930331855 347.30712,0.26171875 349.160645,0.26171875 C350.988779,0.26171875 352.385249,0.907057349 353.350098,2.19775391 C354.314946,3.48845046 354.81429,5.39061243 354.848145,7.90429688 L354.848145,11.2939453 Z M353.324707,7.98046875 C353.324707,5.86457275 352.979821,4.26497937 352.290039,3.18164062 C351.600257,2.09830187 350.557136,1.55664062 349.160645,1.55664062 C347.789544,1.55664062 346.757002,2.08560669 346.062988,3.14355469 C345.368974,4.20150269 345.013509,5.76301051 344.996582,7.828125 L344.996582,11.4589844 C344.996582,13.5664168 345.354163,15.1787054 346.069336,16.2958984 C346.784509,17.4130915 347.823398,17.9716797 349.186035,17.9716797 C350.540209,17.9716797 351.566403,17.4257867 352.264648,16.3339844 C352.962894,15.242182 353.316243,13.6425887 353.324707,11.5351562 L353.324707,7.98046875 Z M375.236816,10.1386719 L366.591309,10.1386719 L366.591309,17.6796875 L376.531738,17.6796875 L376.531738,19 L365.029785,19 L365.029785,0.515625 L376.468262,0.515625 L376.468262,1.84863281 L366.591309,1.84863281 L366.591309,8.81835938 L375.236816,8.81835938 L375.236816,10.1386719 Z M392.362793,1.84863281 L386.027832,1.84863281 L386.027832,19 L384.466309,19 L384.466309,1.84863281 L378.144043,1.84863281 L378.144043,0.515625 L392.362793,0.515625 L392.362793,1.84863281 Z M409.044434,19 L407.470215,19 L407.470215,10.1386719 L396.907715,10.1386719 L396.907715,19 L395.346191,19 L395.346191,0.515625 L396.907715,0.515625 L396.907715,8.81835938 L407.470215,8.81835938 L407.470215,0.515625 L409.044434,0.515625 L409.044434,19 Z" id="500-000-ETH" fill="#C5DFDB"></path>
                            <path d="M327.3555,29.267 C325.0785,29.267 323.3075,30.95 323.3075,33.139 C323.3075,35.35 325.0565,37.055 327.3115,37.055 C328.4005,37.055 329.5115,36.56 330.2925,35.79 L329.5225,34.932 C328.9395,35.493 328.1475,35.845 327.3775,35.845 C325.8375,35.845 324.6275,34.646 324.6275,33.128 C324.6275,31.61 325.8375,30.422 327.3775,30.422 C328.1585,30.422 328.9615,30.796 329.5225,31.401 L330.2815,30.455 C329.5335,29.718 328.4445,29.267 327.3555,29.267 Z M338.5295,35.262 L334.6465,35.262 L333.9095,37 L332.5565,37 L335.9555,29.3 L337.2865,29.3 L340.6525,37 L339.2665,37 L338.5295,35.262 Z M338.0345,34.107 L336.5825,30.686 L335.1305,34.107 L338.0345,34.107 Z M343.6755,29.3 L346.7445,29.3 C348.6805,29.3 349.7915,30.257 349.7915,31.929 C349.7915,33.667 348.6805,34.679 346.7445,34.679 L344.9735,34.679 L344.9735,37 L343.6755,37 L343.6755,29.3 Z M344.9735,30.466 L344.9735,33.513 L346.6895,33.513 C347.8775,33.513 348.5485,33.007 348.5485,31.962 C348.5485,30.95 347.8775,30.466 346.6895,30.466 L344.9735,30.466 Z" id="cap" fill="#FFFFFF"></path>
                            <rect id="Rectangle-5" fill="#24EAC9" opacity="0.889999986" x="0" y="110" width="675" height="71"></rect>
                            <g id="etherum-logo-svg" transform="translate(328.000000, 130.000000)" fill-rule="nonzero" fill="#000000">
                                <polygon id="Shape" opacity="0.476392663" points="9.21375529 0 9 0.692809368 9 20.7965328 9.21375529 21 19 15.4839247"></polygon>
                                <polygon id="Shape" opacity="0.608016304" points="10 0 0 15.483871 10 21 10 11.242288"></polygon>
                                <polygon id="Shape" opacity="0.476392663" points="9.12151559 23.4503106 9 23.5887311 9 30.6682953 9.12151559 31 19 18"></polygon>
                                <polygon id="Shape" opacity="0.608016304" points="10 31 10 23.4503106 0 18"></polygon>
                                <polygon id="Shape" points="10 21 20 15.3469682 10 11"></polygon>
                                <polygon id="Shape" opacity="0.476392663" points="0 15.3469682 10 21 10 11"></polygon>
                            </g>
                        </g>
                        <path d="M0.634765625,245.267578 L1.53613281,236.253906 L10.7783203,236.253906 L10.7783203,237.663086 L2.84375,237.663086 L2.19628906,243.90918 C3.18652839,243.232093 4.346022,242.893555 5.67480469,242.893555 C7.34213073,242.893555 8.67089349,243.435216 9.66113281,244.518555 C10.6513721,245.601893 11.1464844,247.044913 11.1464844,248.847656 C11.1464844,250.794281 10.6640673,252.305008 9.69921875,253.379883 C8.73437018,254.454758 7.37598532,254.992188 5.62402344,254.992188 C4.01594248,254.992188 2.7125701,254.543624 1.71386719,253.646484 C0.715164277,252.749344 0.143880928,251.492521 0,249.875977 L1.45996094,249.875977 C1.60384187,251.137051 2.03124645,252.091305 2.7421875,252.73877 C3.45312855,253.386234 4.41373093,253.709961 5.62402344,253.709961 C6.94434254,253.709961 7.9409146,253.29102 8.61376953,252.453125 C9.28662446,251.61523 9.62304688,250.421883 9.62304688,248.873047 C9.62304688,247.518873 9.24642304,246.414392 8.49316406,245.55957 C7.73990509,244.704748 6.71159506,244.277344 5.40820312,244.277344 C4.68879849,244.277344 4.06250267,244.368326 3.52929688,244.550293 C2.99609108,244.73226 2.43327119,245.085609 1.84082031,245.610352 L0.634765625,245.267578 Z M25.1621094,247.032227 C25.1621094,249.63901 24.6839241,251.617344 23.7275391,252.967285 C22.7711541,254.317227 21.3619885,254.992188 19.5,254.992188 C17.6718659,254.992188 16.2711637,254.329922 15.2978516,253.005371 C14.3245394,251.68082 13.8251954,249.753268 13.7998047,247.222656 L13.7998047,243.90918 C13.7998047,241.310859 14.2822217,239.343106 15.2470703,238.005859 C16.2119189,236.668613 17.6210845,236 19.4746094,236 C21.3027435,236 22.6992139,236.645339 23.6640625,237.936035 C24.6289111,239.226732 25.128255,241.128894 25.1621094,243.642578 L25.1621094,247.032227 Z M23.6386719,243.71875 C23.6386719,241.602854 23.293786,240.003261 22.6040039,238.919922 C21.9142218,237.836583 20.8711007,237.294922 19.4746094,237.294922 C18.1035088,237.294922 17.070967,237.823888 16.3769531,238.881836 C15.6829392,239.939784 15.327474,241.501292 15.3105469,243.566406 L15.3105469,247.197266 C15.3105469,249.304698 15.6681279,250.916987 16.3833008,252.03418 C17.0984736,253.151373 18.137363,253.709961 19.5,253.709961 C20.8541734,253.709961 21.8803676,253.164068 22.5786133,252.072266 C23.276859,250.980463 23.6302083,249.38087 23.6386719,247.273438 L23.6386719,243.71875 Z M45.8935547,247.032227 C45.8935547,249.63901 45.4153694,251.617344 44.4589844,252.967285 C43.5025994,254.317227 42.0934338,254.992188 40.2314453,254.992188 C38.4033112,254.992188 37.002609,254.329922 36.0292969,253.005371 C35.0559847,251.68082 34.5566408,249.753268 34.53125,247.222656 L34.53125,243.90918 C34.53125,241.310859 35.0136671,239.343106 35.9785156,238.005859 C36.9433642,236.668613 38.3525298,236 40.2060547,236 C42.0341888,236 43.4306592,236.645339 44.3955078,237.936035 C45.3603564,239.226732 45.8597004,241.128894 45.8935547,243.642578 L45.8935547,247.032227 Z M44.3701172,243.71875 C44.3701172,241.602854 44.0252313,240.003261 43.3354492,238.919922 C42.6456671,237.836583 41.602546,237.294922 40.2060547,237.294922 C38.8349541,237.294922 37.8024123,237.823888 37.1083984,238.881836 C36.4143846,239.939784 36.0589194,241.501292 36.0419922,243.566406 L36.0419922,247.197266 C36.0419922,249.304698 36.3995732,250.916987 37.1147461,252.03418 C37.8299189,253.151373 38.8688083,253.709961 40.2314453,253.709961 C41.5856188,253.709961 42.6118129,253.164068 43.3100586,252.072266 C44.0083043,250.980463 44.3616536,249.38087 44.3701172,247.273438 L44.3701172,243.71875 Z M60.3027344,247.032227 C60.3027344,249.63901 59.8245491,251.617344 58.8681641,252.967285 C57.9117791,254.317227 56.5026135,254.992188 54.640625,254.992188 C52.8124909,254.992188 51.4117887,254.329922 50.4384766,253.005371 C49.4651644,251.68082 48.9658204,249.753268 48.9404297,247.222656 L48.9404297,243.90918 C48.9404297,241.310859 49.4228467,239.343106 50.3876953,238.005859 C51.3525439,236.668613 52.7617095,236 54.6152344,236 C56.4433685,236 57.8398389,236.645339 58.8046875,237.936035 C59.7695361,239.226732 60.26888,241.128894 60.3027344,243.642578 L60.3027344,247.032227 Z M58.7792969,243.71875 C58.7792969,241.602854 58.434411,240.003261 57.7446289,238.919922 C57.0548468,237.836583 56.0117257,237.294922 54.6152344,237.294922 C53.2441338,237.294922 52.211592,237.823888 51.5175781,238.881836 C50.8235642,239.939784 50.468099,241.501292 50.4511719,243.566406 L50.4511719,247.197266 C50.4511719,249.304698 50.8087529,250.916987 51.5239258,252.03418 C52.2390986,253.151373 53.277988,253.709961 54.640625,253.709961 C55.9947984,253.709961 57.0209926,253.164068 57.7192383,252.072266 C58.417484,250.980463 58.7708333,249.38087 58.7792969,247.273438 L58.7792969,243.71875 Z M74.7119141,247.032227 C74.7119141,249.63901 74.2337287,251.617344 73.2773438,252.967285 C72.3209588,254.317227 70.9117932,254.992188 69.0498047,254.992188 C67.2216705,254.992188 65.8209684,254.329922 64.8476562,253.005371 C63.8743441,251.68082 63.3750001,249.753268 63.3496094,247.222656 L63.3496094,243.90918 C63.3496094,241.310859 63.8320264,239.343106 64.796875,238.005859 C65.7617236,236.668613 67.1708892,236 69.0244141,236 C70.8525482,236 72.2490186,236.645339 73.2138672,237.936035 C74.1787158,239.226732 74.6780597,241.128894 74.7119141,243.642578 L74.7119141,247.032227 Z M73.1884766,243.71875 C73.1884766,241.602854 72.8435907,240.003261 72.1538086,238.919922 C71.4640265,237.836583 70.4209054,237.294922 69.0244141,237.294922 C67.6533135,237.294922 66.6207717,237.823888 65.9267578,238.881836 C65.2327439,239.939784 64.8772787,241.501292 64.8603516,243.566406 L64.8603516,247.197266 C64.8603516,249.304698 65.2179326,250.916987 65.9331055,252.03418 C66.6482783,253.151373 67.6871677,253.709961 69.0498047,253.709961 C70.4039781,253.709961 71.4301723,253.164068 72.128418,252.072266 C72.8266636,250.980463 73.180013,249.38087 73.1884766,247.273438 L73.1884766,243.71875 Z M95.1005859,245.876953 L86.4550781,245.876953 L86.4550781,253.417969 L96.3955078,253.417969 L96.3955078,254.738281 L84.8935547,254.738281 L84.8935547,236.253906 L96.3320312,236.253906 L96.3320312,237.586914 L86.4550781,237.586914 L86.4550781,244.556641 L95.1005859,244.556641 L95.1005859,245.876953 Z M112.226562,237.586914 L105.891602,237.586914 L105.891602,254.738281 L104.330078,254.738281 L104.330078,237.586914 L98.0078125,237.586914 L98.0078125,236.253906 L112.226562,236.253906 L112.226562,237.586914 Z M128.908203,254.738281 L127.333984,254.738281 L127.333984,245.876953 L116.771484,245.876953 L116.771484,254.738281 L115.209961,254.738281 L115.209961,236.253906 L116.771484,236.253906 L116.771484,244.556641 L127.333984,244.556641 L127.333984,236.253906 L128.908203,236.253906 L128.908203,254.738281 Z" id="50-000-ETH" fill="#C5DFDB"></path>
                        <path d="M32.081,265 C34.38,265 36.162,266.683 36.162,268.883 C36.162,271.083 34.38,272.788 32.081,272.788 C29.782,272.788 28,271.083 28,268.883 C28,266.672 29.782,265 32.081,265 Z M32.092,266.166 C30.574,266.166 29.32,267.354 29.32,268.883 C29.32,270.412 30.585,271.622 32.092,271.622 C33.599,271.622 34.831,270.412 34.831,268.883 C34.831,267.354 33.599,266.166 32.092,266.166 Z M46.093,265.033 L44.795,265.033 L44.795,269.543 C44.795,270.852 44.014,271.622 42.76,271.622 C41.495,271.622 40.692,270.841 40.692,269.543 L40.692,265.033 L39.394,265.033 L39.394,269.543 C39.394,271.556 40.67,272.788 42.749,272.788 C44.828,272.788 46.093,271.556 46.093,269.543 L46.093,265.033 Z M54.836,272.733 L53.428,270.401 C53.318,270.412 53.197,270.412 53.076,270.412 L51.25,270.412 L51.25,272.733 L49.952,272.733 L49.952,265.033 L53.076,265.033 C55.045,265.033 56.178,265.99 56.178,267.662 C56.178,268.894 55.606,269.763 54.583,270.159 L56.31,272.733 L54.836,272.733 Z M51.25,269.246 L53.076,269.246 C54.264,269.246 54.946,268.74 54.946,267.695 C54.946,266.683 54.264,266.199 53.076,266.199 L51.25,266.199 L51.25,269.246 Z M70.012,268.949 L70.012,271.094 C69.462,271.424 68.813,271.622 68.241,271.622 C66.668,271.622 65.425,270.423 65.425,268.883 C65.425,267.354 66.657,266.155 68.23,266.155 C69.033,266.155 69.858,266.485 70.452,267.035 L71.189,266.078 C70.43,265.418 69.33,265 68.23,265 C65.898,265 64.105,266.683 64.105,268.883 C64.105,271.083 65.876,272.788 68.153,272.788 C69.209,272.788 70.364,272.381 71.145,271.787 L71.145,268.949 L70.012,268.949 Z M78.425,265 C80.724,265 82.506,266.683 82.506,268.883 C82.506,271.083 80.724,272.788 78.425,272.788 C76.126,272.788 74.344,271.083 74.344,268.883 C74.344,266.672 76.126,265 78.425,265 Z M78.436,266.166 C76.918,266.166 75.664,267.354 75.664,268.883 C75.664,270.412 76.929,271.622 78.436,271.622 C79.943,271.622 81.175,270.412 81.175,268.883 C81.175,267.354 79.943,266.166 78.436,266.166 Z M90.666,270.995 L86.783,270.995 L86.046,272.733 L84.693,272.733 L88.092,265.033 L89.423,265.033 L92.789,272.733 L91.403,272.733 L90.666,270.995 Z M90.171,269.84 L88.719,266.419 L87.267,269.84 L90.171,269.84 Z M97.11,271.556 L97.11,265.033 L95.812,265.033 L95.812,272.733 L100.443,272.733 L100.443,271.556 L97.11,271.556 Z" id="OUR-goal" fill="#FFFFFF"></path>
                        <rect id="Rectangle-5" fill="#00FA9A" opacity="0.900000036" x="18" y="102" width="93" height="87"></rect>
                        <polygon id="Shape" fill="#000000" fill-rule="nonzero" opacity="0.476392663" points="64.5126957 130 64.3049139 130.706235 64.3049139 151.19954 64.5126957 151.40695 74.0254583 145.783981"></polygon>
                        <polygon id="Shape" fill="#000000" fill-rule="nonzero" opacity="0.608016304" points="64.5127626 130 55 145.783981 64.5127626 151.407024 64.5127626 141.460187"></polygon>
                        <polygon id="Shape" fill="#000000" fill-rule="nonzero" opacity="0.476392663" points="64.5126957 153.208117 64.3956094 153.35085 64.3956094 160.651016 64.5126957 160.993057 74.0311082 147.587973"></polygon>
                        <polygon id="Shape" fill="#000000" fill-rule="nonzero" opacity="0.608016304" points="64.5127626 160.992953 64.5127626 153.208012 55 147.587869"></polygon>
                        <polygon id="Shape" fill="#000000" fill-rule="nonzero" points="64.5126957 151.406927 74.0253096 145.784033 64.5126957 141.460239"></polygon>
                        <polygon id="Shape" fill="#000000" fill-rule="nonzero" opacity="0.476392663" points="55.0000669 145.78404 64.5126808 151.406935 64.5126808 141.460247"></polygon>
                        <path d="M16.2338625,220 C16.2338625,220 11.8833178,206.224287 40.7110715,207.186653 C59.1203957,207.801217 65,196 65,196" id="Path-4" stroke="#24EAC9" transform="translate(40.500000, 208.000000) scale(1, -1) translate(-40.500000, -208.000000) "></path>
                        <path d="M65.2338625,220 C65.2338625,220 60.8833178,206.224287 89.7110715,207.186653 C108.120396,207.801217 114,196 114,196" id="Path-4" stroke="#24EAC9" transform="translate(89.500000, 208.000000) scale(-1, -1) translate(-89.500000, -208.000000) "></path>
                        <path d="M17,92 C17,92 46.971042,68.369382 215.648629,69.1866528 C342.489368,69.8012171 343,48 343,48" id="Path-4" stroke="#24EAC9"></path>
                        <path d="M343,92 C343,92 372.443137,68.3668242 541.648617,69.1866528 C668.489347,69.8012171 678.999976,48 678.999976,48" id="Path-4" stroke="#24EAC9" transform="translate(510.999988, 70.000000) scale(-1, 1) translate(-510.999988, -70.000000) "></path>
                    </g>
                </g>
            </g>
        </g>
    </g>
</svg>