<svg xmlns="http://www.w3.org/2000/svg" width="751" height="312" viewBox="0 0 751 312">
  <g fill="none" fill-rule="evenodd" transform="translate(7 9)">
    <path fill="#FFF" d="M284.01,16.29 C282.3,17.85 280.05,18.81 277.77,18.81 C274.35,18.81 271.41,16.89 270.03,14.07 L278.1,14.07 L278.1,12.54 L269.46,12.54 C269.31,11.91 269.22,11.22 269.22,10.53 C269.22,9.87 269.31,9.21 269.46,8.61 L278.1,8.61 L278.1,7.08 L269.97,7.08 C271.32,4.2 274.29,2.25 277.77,2.25 C280.11,2.25 282.36,3.24 284.01,4.89 L285.39,3.06 C283.44,1.17 280.62,0 277.74,0 C272.88,0 268.83,2.94 267.36,7.08 L264,7.08 L264,8.61 L266.97,8.61 C266.85,9.24 266.79,9.87 266.79,10.53 C266.79,11.22 266.85,11.88 266.97,12.54 L264,12.54 L264,14.07 L267.39,14.07 C268.86,18.24 272.85,21.18 277.65,21.18 C280.56,21.18 283.41,19.89 285.42,17.94 L284.01,16.29 Z M293.73,21.06 L293.73,0.06 L287.1,0.06 L287.1,2.34 L291.36,2.34 L291.36,21.06 L293.73,21.06 Z M312.39,2.37 L312.39,0.06 L300.21,0.06 L300.21,10.8 C301.71,10.5 304.23,10.29 305.61,10.29 C308.7,10.29 310.65,11.85 310.65,14.34 C310.65,17.16 308.7,18.9 305.55,18.9 C303.66,18.9 301.44,18.12 299.7,16.8 L298.71,18.84 C300.69,20.22 303.48,21.12 305.79,21.12 C310.29,21.12 313.2,18.39 313.2,14.19 C313.2,10.59 310.38,7.98 305.97,7.98 C305.01,7.98 303.51,8.1 302.43,8.28 L302.43,2.37 L312.39,2.37 Z M324.93,0 C330.51,0 333.6,3.78 333.6,10.56 C333.6,17.34 330.51,21.12 324.93,21.12 C319.35,21.12 316.26,17.34 316.26,10.56 C316.26,3.78 319.35,0 324.93,0 Z M324.93,2.04 C320.85,2.04 318.69,4.86 318.69,10.56 C318.69,16.23 320.85,19.08 324.93,19.08 C329.01,19.08 331.17,16.23 331.17,10.56 C331.17,4.86 329.01,2.04 324.93,2.04 Z M353.67,0 C359.25,0 362.34,3.78 362.34,10.56 C362.34,17.34 359.25,21.12 353.67,21.12 C348.09,21.12 345,17.34 345,10.56 C345,3.78 348.09,0 353.67,0 Z M353.67,2.04 C349.59,2.04 347.43,4.86 347.43,10.56 C347.43,16.23 349.59,19.08 353.67,19.08 C357.75,19.08 359.91,16.23 359.91,10.56 C359.91,4.86 357.75,2.04 353.67,2.04 Z M374.19,0 C379.77,0 382.86,3.78 382.86,10.56 C382.86,17.34 379.77,21.12 374.19,21.12 C368.61,21.12 365.52,17.34 365.52,10.56 C365.52,3.78 368.61,0 374.19,0 Z M374.19,2.04 C370.11,2.04 367.95,4.86 367.95,10.56 C367.95,16.23 370.11,19.08 374.19,19.08 C378.27,19.08 380.43,16.23 380.43,10.56 C380.43,4.86 378.27,2.04 374.19,2.04 Z M394.71,0 C400.29,0 403.38,3.78 403.38,10.56 C403.38,17.34 400.29,21.12 394.71,21.12 C389.13,21.12 386.04,17.34 386.04,10.56 C386.04,3.78 389.13,0 394.71,0 Z M394.71,2.04 C390.63,2.04 388.47,4.86 388.47,10.56 C388.47,16.23 390.63,19.08 394.71,19.08 C398.79,19.08 400.95,16.23 400.95,10.56 C400.95,4.86 398.79,2.04 394.71,2.04 Z M423.45,0 C429.03,0 432.12,3.78 432.12,10.56 C432.12,17.34 429.03,21.12 423.45,21.12 C417.87,21.12 414.78,17.34 414.78,10.56 C414.78,3.78 417.87,0 423.45,0 Z M423.45,2.04 C419.37,2.04 417.21,4.86 417.21,10.56 C417.21,16.23 419.37,19.08 423.45,19.08 C427.53,19.08 429.69,16.23 429.69,10.56 C429.69,4.86 427.53,2.04 423.45,2.04 Z M443.97,0 C449.55,0 452.64,3.78 452.64,10.56 C452.64,17.34 449.55,21.12 443.97,21.12 C438.39,21.12 435.3,17.34 435.3,10.56 C435.3,3.78 438.39,0 443.97,0 Z M443.97,2.04 C439.89,2.04 437.73,4.86 437.73,10.56 C437.73,16.23 439.89,19.08 443.97,19.08 C448.05,19.08 450.21,16.23 450.21,10.56 C450.21,4.86 448.05,2.04 443.97,2.04 Z M464.49,0 C470.07,0 473.16,3.78 473.16,10.56 C473.16,17.34 470.07,21.12 464.49,21.12 C458.91,21.12 455.82,17.34 455.82,10.56 C455.82,3.78 458.91,0 464.49,0 Z M464.49,2.04 C460.41,2.04 458.25,4.86 458.25,10.56 C458.25,16.23 460.41,19.08 464.49,19.08 C468.57,19.08 470.73,16.23 470.73,10.56 C470.73,4.86 468.57,2.04 464.49,2.04 Z"/>
    <path fill="#00FA9A" d="M310.71 33.71L310.71 32.841 306.002 32.841 306.002 33.71 310.71 33.71zM310.71 36.02L310.71 35.151 306.002 35.151 306.002 36.02 310.71 36.02zM319.499 31.466L319.488 30.3 314.802 30.3 314.802 34.37C315.319 34.315 316.364 34.271 316.826 34.271 317.816 34.271 318.421 34.755 318.421 35.536 318.421 36.405 317.816 36.922 316.815 36.922 316.122 36.922 315.352 36.625 314.736 36.108L314.219 37.164C314.978 37.692 316.045 38.044 316.958 38.044 318.685 38.044 319.807 37.021 319.807 35.459 319.807 34.106 318.729 33.116 317.057 33.116L316.001 33.127 316.001 31.466 319.499 31.466zM323.723 30.245C325.307 30.245 326.308 31.004 326.308 32.236 326.308 32.984 325.879 33.567 325.164 33.886 326.099 34.194 326.693 34.909 326.693 35.844 326.693 37.219 325.549 38.055 323.723 38.055 321.908 38.055 320.764 37.219 320.764 35.866 320.764 34.92 321.369 34.194 322.348 33.886 321.6 33.545 321.149 32.94 321.149 32.192 321.149 30.982 322.15 30.245 323.723 30.245zM323.723 31.18C322.799 31.18 322.249 31.598 322.249 32.313 322.249 33.028 322.799 33.435 323.723 33.435 324.658 33.435 325.197 33.028 325.197 32.313 325.197 31.598 324.658 31.18 323.723 31.18zM323.723 34.447C322.634 34.447 321.996 34.92 321.996 35.723 321.996 36.559 322.623 37.032 323.723 37.032 324.823 37.032 325.461 36.559 325.461 35.723 325.461 34.92 324.823 34.447 323.723 34.447zM332.732 31.466L332.721 30.3 328.035 30.3 328.035 34.37C328.552 34.315 329.597 34.271 330.059 34.271 331.049 34.271 331.654 34.755 331.654 35.536 331.654 36.405 331.049 36.922 330.048 36.922 329.355 36.922 328.585 36.625 327.969 36.108L327.452 37.164C328.211 37.692 329.278 38.044 330.191 38.044 331.918 38.044 333.04 37.021 333.04 35.459 333.04 34.106 331.962 33.116 330.29 33.116L329.234 33.127 329.234 31.466 332.732 31.466zM339.332 38.055C338.573 38.055 337.66 37.824 337.033 37.472L337.539 36.493C338.012 36.801 338.661 36.977 339.244 36.977 340.74 36.977 341.433 35.855 341.389 34.194 340.982 34.909 340.256 35.283 339.288 35.283 337.748 35.283 336.813 34.326 336.813 32.83 336.813 31.235 337.88 30.245 339.519 30.245 341.466 30.245 342.654 31.631 342.654 33.996 342.654 36.449 341.367 38.055 339.332 38.055zM339.53 34.26C340.575 34.26 341.191 33.589 341.18 32.797 341.191 32.126 340.696 31.367 339.585 31.367 338.65 31.367 338.023 31.906 338.023 32.841 338.023 33.721 338.595 34.26 339.53 34.26zM345.998 33.501L348.198 31.125 348.198 30.311 343.512 30.311 343.512 31.466 346.592 31.466 344.59 33.622 344.59 34.381 345.657 34.381C346.68 34.381 347.285 34.81 347.285 35.646 347.285 36.438 346.691 36.966 345.668 36.966 344.964 36.966 344.249 36.68 343.699 36.163L343.16 37.219C343.82 37.725 344.81 38.055 345.756 38.055 347.472 38.055 348.561 37.054 348.561 35.613 348.561 34.403 347.681 33.655 346.394 33.545L345.998 33.501zM352.026 38.055C351.267 38.055 350.354 37.824 349.727 37.472L350.233 36.493C350.706 36.801 351.355 36.977 351.938 36.977 353.434 36.977 354.127 35.855 354.083 34.194 353.676 34.909 352.95 35.283 351.982 35.283 350.442 35.283 349.507 34.326 349.507 32.83 349.507 31.235 350.574 30.245 352.213 30.245 354.16 30.245 355.348 31.631 355.348 33.996 355.348 36.449 354.061 38.055 352.026 38.055zM352.224 34.26C353.269 34.26 353.885 33.589 353.874 32.797 353.885 32.126 353.39 31.367 352.279 31.367 351.344 31.367 350.717 31.906 350.717 32.841 350.717 33.721 351.289 34.26 352.224 34.26zM357.009 36.669C356.613 36.669 356.327 36.966 356.327 37.373 356.327 37.604 356.426 37.813 356.624 37.945L356.206 38.902 356.855 38.902 357.482 37.956C357.603 37.78 357.68 37.593 357.68 37.373 357.68 36.933 357.361 36.669 357.009 36.669zM362.014 30.245C362.773 30.245 363.686 30.476 364.313 30.828L363.807 31.807C363.334 31.499 362.685 31.323 362.102 31.323 360.606 31.323 359.913 32.445 359.957 34.106 360.364 33.391 361.09 33.017 362.058 33.017 363.598 33.017 364.533 33.974 364.533 35.47 364.533 37.065 363.466 38.055 361.827 38.055 359.88 38.055 358.692 36.669 358.692 34.304 358.692 31.851 359.979 30.245 362.014 30.245zM361.816 34.04C360.771 34.04 360.155 34.711 360.166 35.503 360.155 36.174 360.65 36.933 361.761 36.933 362.696 36.933 363.323 36.394 363.323 35.459 363.323 34.579 362.751 34.04 361.816 34.04zM368.097 30.245C367.107 30.245 366.128 30.663 365.292 31.345L365.809 32.346C366.458 31.752 367.239 31.378 367.91 31.378 368.713 31.378 369.197 31.752 369.197 32.368 369.197 32.808 368.823 33.435 368.262 34.007L365.424 37.054 365.424 38 370.902 38 370.902 36.834 367.14 36.834 369.142 34.711C369.956 33.831 370.55 32.962 370.55 32.181 370.55 31.004 369.549 30.245 368.097 30.245zM380.747 31.466L380.747 30.3 375.247 30.3 375.247 38 380.879 38 380.879 36.834 376.545 36.834 376.545 34.711 380.307 34.711 380.307 33.545 376.545 33.545 376.545 31.466 380.747 31.466zM385.378 36.658C385.037 36.823 384.762 36.911 384.498 36.911 384.102 36.911 383.871 36.724 383.871 36.119L383.871 33.314 385.598 33.314 385.598 32.368 383.871 32.368 383.871 30.762 382.617 30.762 382.617 32.368 381.792 32.368 381.792 33.314 382.617 33.314 382.617 36.35C382.617 37.549 383.376 38.055 384.256 38.055 384.751 38.055 385.235 37.901 385.697 37.626L385.378 36.658zM390.35 32.104C389.349 32.104 388.601 32.467 388.183 33.292L388.183 29.838 386.918 29.838 386.918 38 388.183 38 388.183 35.118C388.183 34.084 388.81 33.303 389.855 33.292 390.735 33.292 391.263 33.831 391.263 34.711L391.263 38 392.528 38 392.528 34.359C392.528 32.962 391.714 32.104 390.35 32.104zM396.631 32.104C398.688 32.104 399.524 33.446 399.37 35.558L394.948 35.558C395.146 36.46 395.839 37.021 396.763 37.021 397.401 37.021 397.984 36.779 398.413 36.339L399.084 37.054C398.512 37.681 397.676 38.044 396.664 38.044 394.86 38.044 393.672 36.845 393.672 35.085 393.672 33.314 394.893 32.115 396.631 32.104zM394.926 34.634L398.27 34.634C398.226 33.688 397.599 33.116 396.642 33.116 395.718 33.116 395.069 33.699 394.926 34.634zM401.955 32.148L400.69 32.148 400.69 38 401.955 38 401.955 34.942C402.054 33.941 402.802 33.248 403.979 33.314L403.979 32.104C403.055 32.104 402.351 32.522 401.955 33.314L401.955 32.148zM407.433 32.104C409.49 32.104 410.326 33.446 410.172 35.558L405.75 35.558C405.948 36.46 406.641 37.021 407.565 37.021 408.203 37.021 408.786 36.779 409.215 36.339L409.886 37.054C409.314 37.681 408.478 38.044 407.466 38.044 405.662 38.044 404.474 36.845 404.474 35.085 404.474 33.314 405.695 32.115 407.433 32.104zM405.728 34.634L409.072 34.634C409.028 33.688 408.401 33.116 407.444 33.116 406.52 33.116 405.871 33.699 405.728 34.634zM416.805 32.148L415.54 32.148 415.54 35.03C415.54 36.053 414.946 36.834 413.934 36.856 413.087 36.856 412.57 36.317 412.57 35.437L412.57 32.148 411.305 32.148 411.305 35.789C411.305 37.186 412.108 38.044 413.45 38.044 414.407 38.033 415.144 37.67 415.54 36.856L415.54 38 416.805 38 416.805 32.148zM426.309 32.104C425.242 32.104 424.461 32.533 424.087 33.512 423.812 32.621 423.097 32.104 422.052 32.104 421.084 32.104 420.336 32.456 419.929 33.281L419.929 32.148 418.675 32.148 418.675 38 419.929 38 419.929 35.107C419.929 34.084 420.545 33.314 421.557 33.281 422.415 33.281 422.932 33.82 422.932 34.711L422.932 38 424.197 38 424.197 35.107C424.197 34.084 424.802 33.314 425.803 33.281 426.661 33.281 427.189 33.82 427.189 34.711L427.189 38 428.454 38 428.454 34.359C428.454 32.962 427.651 32.104 426.309 32.104zM431.897 32.093C430.775 32.093 429.741 32.599 429.741 33.787 429.73 35.899 432.81 35.228 432.81 36.427 432.81 36.867 432.392 37.054 431.853 37.054 431.215 37.054 430.401 36.779 429.895 36.328L429.444 37.23C430.027 37.758 430.94 38.044 431.798 38.044 432.975 38.044 434.042 37.505 434.042 36.306 434.053 34.183 430.94 34.766 430.94 33.688 430.94 33.27 431.303 33.105 431.798 33.105 432.315 33.105 432.964 33.303 433.481 33.622L433.943 32.687C433.415 32.313 432.634 32.093 431.897 32.093zM36.604 283.71L36.604 282.841 31.896 282.841 31.896 283.71 36.604 283.71zM36.604 286.02L36.604 285.151 31.896 285.151 31.896 286.02 36.604 286.02zM42.775 288L42.775 280.3 39.97 280.3 39.97 281.455 41.477 281.455 41.477 288 42.775 288zM49.903 288.055C49.144 288.055 48.231 287.824 47.604 287.472L48.11 286.493C48.583 286.801 49.232 286.977 49.815 286.977 51.311 286.977 52.004 285.855 51.96 284.194 51.553 284.909 50.827 285.283 49.859 285.283 48.319 285.283 47.384 284.326 47.384 282.83 47.384 281.235 48.451 280.245 50.09 280.245 52.037 280.245 53.225 281.631 53.225 283.996 53.225 286.449 51.938 288.055 49.903 288.055zM50.101 284.26C51.146 284.26 51.762 283.589 51.751 282.797 51.762 282.126 51.267 281.367 50.156 281.367 49.221 281.367 48.594 281.906 48.594 282.841 48.594 283.721 49.166 284.26 50.101 284.26zM59.253 281.466L59.242 280.3 54.556 280.3 54.556 284.37C55.073 284.315 56.118 284.271 56.58 284.271 57.57 284.271 58.175 284.755 58.175 285.536 58.175 286.405 57.57 286.922 56.569 286.922 55.876 286.922 55.106 286.625 54.49 286.108L53.973 287.164C54.732 287.692 55.799 288.044 56.712 288.044 58.439 288.044 59.561 287.021 59.561 285.459 59.561 284.106 58.483 283.116 56.811 283.116L55.755 283.127 55.755 281.466 59.253 281.466zM62.916 283.501L65.116 281.125 65.116 280.311 60.43 280.311 60.43 281.466 63.51 281.466 61.508 283.622 61.508 284.381 62.575 284.381C63.598 284.381 64.203 284.81 64.203 285.646 64.203 286.438 63.609 286.966 62.586 286.966 61.882 286.966 61.167 286.68 60.617 286.163L60.078 287.219C60.738 287.725 61.728 288.055 62.674 288.055 64.39 288.055 65.479 287.054 65.479 285.613 65.479 284.403 64.599 283.655 63.312 283.545L62.916 283.501zM67.162 286.669C66.766 286.669 66.48 286.966 66.48 287.373 66.48 287.604 66.579 287.813 66.777 287.945L66.359 288.902 67.008 288.902 67.635 287.956C67.756 287.78 67.833 287.593 67.833 287.373 67.833 286.933 67.514 286.669 67.162 286.669zM71.265 288L71.265 280.3 68.46 280.3 68.46 281.455 69.967 281.455 69.967 288 71.265 288zM75.456 283.501L77.656 281.125 77.656 280.311 72.97 280.311 72.97 281.466 76.05 281.466 74.048 283.622 74.048 284.381 75.115 284.381C76.138 284.381 76.743 284.81 76.743 285.646 76.743 286.438 76.149 286.966 75.126 286.966 74.422 286.966 73.707 286.68 73.157 286.163L72.618 287.219C73.278 287.725 74.268 288.055 75.214 288.055 76.93 288.055 78.019 287.054 78.019 285.613 78.019 284.403 77.139 283.655 75.852 283.545L75.456 283.501zM87.853 281.466L87.853 280.3 82.353 280.3 82.353 288 87.985 288 87.985 286.834 83.651 286.834 83.651 284.711 87.413 284.711 87.413 283.545 83.651 283.545 83.651 281.466 87.853 281.466zM92.484 286.658C92.143 286.823 91.868 286.911 91.604 286.911 91.208 286.911 90.977 286.724 90.977 286.119L90.977 283.314 92.704 283.314 92.704 282.368 90.977 282.368 90.977 280.762 89.723 280.762 89.723 282.368 88.898 282.368 88.898 283.314 89.723 283.314 89.723 286.35C89.723 287.549 90.482 288.055 91.362 288.055 91.857 288.055 92.341 287.901 92.803 287.626L92.484 286.658zM97.456 282.104C96.455 282.104 95.707 282.467 95.289 283.292L95.289 279.838 94.024 279.838 94.024 288 95.289 288 95.289 285.118C95.289 284.084 95.916 283.303 96.961 283.292 97.841 283.292 98.369 283.831 98.369 284.711L98.369 288 99.634 288 99.634 284.359C99.634 282.962 98.82 282.104 97.456 282.104zM103.737 282.104C105.794 282.104 106.63 283.446 106.476 285.558L102.054 285.558C102.252 286.46 102.945 287.021 103.869 287.021 104.507 287.021 105.09 286.779 105.519 286.339L106.19 287.054C105.618 287.681 104.782 288.044 103.77 288.044 101.966 288.044 100.778 286.845 100.778 285.085 100.778 283.314 101.999 282.115 103.737 282.104zM102.032 284.634L105.376 284.634C105.332 283.688 104.705 283.116 103.748 283.116 102.824 283.116 102.175 283.699 102.032 284.634zM109.061 282.148L107.796 282.148 107.796 288 109.061 288 109.061 284.942C109.16 283.941 109.908 283.248 111.085 283.314L111.085 282.104C110.161 282.104 109.457 282.522 109.061 283.314L109.061 282.148zM114.539 282.104C116.596 282.104 117.432 283.446 117.278 285.558L112.856 285.558C113.054 286.46 113.747 287.021 114.671 287.021 115.309 287.021 115.892 286.779 116.321 286.339L116.992 287.054C116.42 287.681 115.584 288.044 114.572 288.044 112.768 288.044 111.58 286.845 111.58 285.085 111.58 283.314 112.801 282.115 114.539 282.104zM112.834 284.634L116.178 284.634C116.134 283.688 115.507 283.116 114.55 283.116 113.626 283.116 112.977 283.699 112.834 284.634zM123.911 282.148L122.646 282.148 122.646 285.03C122.646 286.053 122.052 286.834 121.04 286.856 120.193 286.856 119.676 286.317 119.676 285.437L119.676 282.148 118.411 282.148 118.411 285.789C118.411 287.186 119.214 288.044 120.556 288.044 121.513 288.033 122.25 287.67 122.646 286.856L122.646 288 123.911 288 123.911 282.148zM133.415 282.104C132.348 282.104 131.567 282.533 131.193 283.512 130.918 282.621 130.203 282.104 129.158 282.104 128.19 282.104 127.442 282.456 127.035 283.281L127.035 282.148 125.781 282.148 125.781 288 127.035 288 127.035 285.107C127.035 284.084 127.651 283.314 128.663 283.281 129.521 283.281 130.038 283.82 130.038 284.711L130.038 288 131.303 288 131.303 285.107C131.303 284.084 131.908 283.314 132.909 283.281 133.767 283.281 134.295 283.82 134.295 284.711L134.295 288 135.56 288 135.56 284.359C135.56 282.962 134.757 282.104 133.415 282.104zM139.003 282.093C137.881 282.093 136.847 282.599 136.847 283.787 136.836 285.899 139.916 285.228 139.916 286.427 139.916 286.867 139.498 287.054 138.959 287.054 138.321 287.054 137.507 286.779 137.001 286.328L136.55 287.23C137.133 287.758 138.046 288.044 138.904 288.044 140.081 288.044 141.148 287.505 141.148 286.306 141.159 284.183 138.046 284.766 138.046 283.688 138.046 283.27 138.409 283.105 138.904 283.105 139.421 283.105 140.07 283.303 140.587 283.622L141.049 282.687C140.521 282.313 139.74 282.093 139.003 282.093z"/>
    <path fill="#FFF" d="M31.475 263.23C29.765 264.79 27.515 265.75 25.235 265.75 21.815 265.75 18.875 263.83 17.495 261.01L25.565 261.01 25.565 259.48 16.925 259.48C16.775 258.85 16.685 258.16 16.685 257.47 16.685 256.81 16.775 256.15 16.925 255.55L25.565 255.55 25.565 254.02 17.435 254.02C18.785 251.14 21.755 249.19 25.235 249.19 27.575 249.19 29.825 250.18 31.475 251.83L32.855 250C30.905 248.11 28.085 246.94 25.205 246.94 20.345 246.94 16.295 249.88 14.825 254.02L11.465 254.02 11.465 255.55 14.435 255.55C14.315 256.18 14.255 256.81 14.255 257.47 14.255 258.16 14.315 258.82 14.435 259.48L11.465 259.48 11.465 261.01 14.855 261.01C16.325 265.18 20.315 268.12 25.115 268.12 28.025 268.12 30.875 266.83 32.885 264.88L31.475 263.23zM48.725 249.31L48.725 247 36.545 247 36.545 257.74C38.045 257.44 40.565 257.23 41.945 257.23 45.035 257.23 46.985 258.79 46.985 261.28 46.985 264.1 45.035 265.84 41.885 265.84 39.995 265.84 37.775 265.06 36.035 263.74L35.045 265.78C37.025 267.16 39.815 268.06 42.125 268.06 46.625 268.06 49.535 265.33 49.535 261.13 49.535 257.53 46.715 254.92 42.305 254.92 41.345 254.92 39.845 255.04 38.765 255.22L38.765 249.31 48.725 249.31zM61.265 246.94C66.845 246.94 69.935 250.72 69.935 257.5 69.935 264.28 66.845 268.06 61.265 268.06 55.685 268.06 52.595 264.28 52.595 257.5 52.595 250.72 55.685 246.94 61.265 246.94zM61.265 248.98C57.185 248.98 55.025 251.8 55.025 257.5 55.025 263.17 57.185 266.02 61.265 266.02 65.345 266.02 67.505 263.17 67.505 257.5 67.505 251.8 65.345 248.98 61.265 248.98zM81.785 246.94C87.365 246.94 90.455 250.72 90.455 257.5 90.455 264.28 87.365 268.06 81.785 268.06 76.205 268.06 73.115 264.28 73.115 257.5 73.115 250.72 76.205 246.94 81.785 246.94zM81.785 248.98C77.705 248.98 75.545 251.8 75.545 257.5 75.545 263.17 77.705 266.02 81.785 266.02 85.865 266.02 88.025 263.17 88.025 257.5 88.025 251.8 85.865 248.98 81.785 248.98zM110.525 246.94C116.105 246.94 119.195 250.72 119.195 257.5 119.195 264.28 116.105 268.06 110.525 268.06 104.945 268.06 101.855 264.28 101.855 257.5 101.855 250.72 104.945 246.94 110.525 246.94zM110.525 248.98C106.445 248.98 104.285 251.8 104.285 257.5 104.285 263.17 106.445 266.02 110.525 266.02 114.605 266.02 116.765 263.17 116.765 257.5 116.765 251.8 114.605 248.98 110.525 248.98zM131.045 246.94C136.625 246.94 139.715 250.72 139.715 257.5 139.715 264.28 136.625 268.06 131.045 268.06 125.465 268.06 122.375 264.28 122.375 257.5 122.375 250.72 125.465 246.94 131.045 246.94zM131.045 248.98C126.965 248.98 124.805 251.8 124.805 257.5 124.805 263.17 126.965 266.02 131.045 266.02 135.125 266.02 137.285 263.17 137.285 257.5 137.285 251.8 135.125 248.98 131.045 248.98zM151.565 246.94C157.145 246.94 160.235 250.72 160.235 257.5 160.235 264.28 157.145 268.06 151.565 268.06 145.985 268.06 142.895 264.28 142.895 257.5 142.895 250.72 145.985 246.94 151.565 246.94zM151.565 248.98C147.485 248.98 145.325 251.8 145.325 257.5 145.325 263.17 147.485 266.02 151.565 266.02 155.645 266.02 157.805 263.17 157.805 257.5 157.805 251.8 155.645 248.98 151.565 248.98zM360.048 58C357.771 58 356 59.683 356 61.872 356 64.083 357.749 65.788 360.004 65.788 361.093 65.788 362.204 65.293 362.985 64.523L362.215 63.665C361.632 64.226 360.84 64.578 360.07 64.578 358.53 64.578 357.32 63.379 357.32 61.861 357.32 60.343 358.53 59.155 360.07 59.155 360.851 59.155 361.654 59.529 362.215 60.134L362.974 59.188C362.226 58.451 361.137 58 360.048 58zM371.222 63.995L367.339 63.995 366.602 65.733 365.249 65.733 368.648 58.033 369.979 58.033 373.345 65.733 371.959 65.733 371.222 63.995zM370.727 62.84L369.275 59.419 367.823 62.84 370.727 62.84zM376.368 58.033L379.437 58.033C381.373 58.033 382.484 58.99 382.484 60.662 382.484 62.4 381.373 63.412 379.437 63.412L377.666 63.412 377.666 65.733 376.368 65.733 376.368 58.033zM377.666 59.199L377.666 62.246 379.382 62.246C380.57 62.246 381.241 61.74 381.241 60.695 381.241 59.683 380.57 59.199 379.382 59.199L377.666 59.199z"/>
    <rect width="675" height="71" x="32" y="108" fill="#00FA9A" opacity=".89"/>
    <rect width="738" height="71" y="108" opacity=".89"/>
    <g fill="#000" fill-rule="nonzero" transform="translate(360 128)">
      <polygon points="9.214 0 9 .693 9 20.797 9.214 21 19 15.484" opacity=".476"/>
      <polygon points="10 0 0 15.484 10 21 10 11.242" opacity=".608"/>
      <polygon points="9.122 23.45 9 23.589 9 30.668 9.122 31 19 18" opacity=".476"/>
      <polygon points="10 31 10 23.45 0 18" opacity=".608"/>
      <polygon points="10 21 20 15.347 10 11"/>
      <polygon points="0 15.347 10 21 10 11" opacity=".476"/>
    </g>
    <path fill="#FFF" d="M73.907,223.949 L73.907,226.094 C73.357,226.424 72.708,226.622 72.136,226.622 C70.563,226.622 69.32,225.423 69.32,223.883 C69.32,222.354 70.552,221.155 72.125,221.155 C72.928,221.155 73.753,221.485 74.347,222.035 L75.084,221.078 C74.325,220.418 73.225,220 72.125,220 C69.793,220 68,221.683 68,223.883 C68,226.083 69.771,227.788 72.048,227.788 C73.104,227.788 74.259,227.381 75.04,226.787 L75.04,223.949 L73.907,223.949 Z M82.32,220 C84.619,220 86.401,221.683 86.401,223.883 C86.401,226.083 84.619,227.788 82.32,227.788 C80.021,227.788 78.239,226.083 78.239,223.883 C78.239,221.672 80.021,220 82.32,220 Z M82.331,221.166 C80.813,221.166 79.559,222.354 79.559,223.883 C79.559,225.412 80.824,226.622 82.331,226.622 C83.838,226.622 85.07,225.412 85.07,223.883 C85.07,222.354 83.838,221.166 82.331,221.166 Z M94.561,225.995 L90.678,225.995 L89.941,227.733 L88.588,227.733 L91.987,220.033 L93.318,220.033 L96.684,227.733 L95.298,227.733 L94.561,225.995 Z M94.066,224.84 L92.614,221.419 L91.162,224.84 L94.066,224.84 Z M101.005,226.556 L101.005,220.033 L99.707,220.033 L99.707,227.733 L104.338,227.733 L104.338,226.556 L101.005,226.556 Z"/>
    <rect width="93" height="87" x="39" y="100" fill="#24EAC9" opacity=".9"/>
    <polygon fill="#000" fill-rule="nonzero" points="85.513 128 85.305 128.706 85.305 149.2 85.513 149.407 95.025 143.784" opacity=".476"/>
    <polygon fill="#000" fill-rule="nonzero" points="85.513 128 76 143.784 85.513 149.407 85.513 139.46" opacity=".608"/>
    <polygon fill="#000" fill-rule="nonzero" points="85.513 151.208 85.396 151.351 85.396 158.651 85.513 158.993 95.031 145.588" opacity=".476"/>
    <polygon fill="#000" fill-rule="nonzero" points="85.513 158.993 85.513 151.208 76 145.588" opacity=".608"/>
    <polygon fill="#000" fill-rule="nonzero" points="85.513 149.407 95.025 143.784 85.513 139.46"/>
    <polygon fill="#000" fill-rule="nonzero" points="76 143.784 85.513 149.407 85.513 139.46" opacity=".476"/>
    <path stroke="#00FA9A" d="M371,83 C371,83 370.067661,78.026058 361,78 L37,78 C33.0634947,78 33,76 33,76" transform="matrix(1 0 0 -1 0 159)"/>
    <path stroke="#00FA9A" d="M709,83 C709,83 708.067661,78.026058 699,78 L375,78 C371.063495,78 371,76 371,76" transform="rotate(180 540 79.5)"/>
    <path stroke="#00FA9A" d="M85,209 C85,209 84.067661,204.026058 75,204 L44,204 C40.0634947,204 40,202 40,202"/>
    <path stroke="#00FA9A" d="M130,209 C130,209 129.067661,204.026058 120,204 L89,204 C85.0634947,204 85,202 85,202" transform="matrix(-1 0 0 1 215 0)"/>
  </g>
</svg>
