<?xml version="1.0" encoding="UTF-8"?>
<svg width="84px" height="12px" viewBox="0 0 84 12" version="1.1" xmlns="http://www.w3.org/2000/svg" xmlns:xlink="http://www.w3.org/1999/xlink">
    <!-- Generator: Sketch 43.2 (39069) - http://www.bohemiancoding.com/sketch -->
    <title>LOGO</title>
    <desc>Created with Sketch.</desc>
    <defs></defs>
    <g id="Symbols" stroke="none" stroke-width="1" fill="none" fill-rule="evenodd">
        <g id="FOOTER" transform="translate(-1044.000000, -8.000000)" fill="#FFFFFF">
            <g id="LOGO">
                <g transform="translate(1044.000000, 8.000000)">
                    <g id="Слой_x0020_1">
                        <g id="_347397344">
                            <polygon id="_347398568" points="11.7261489 0.314323261 13.4942035 0.314323261 13.4942035 11.4733334 11.7261489 11.4733334"></polygon>
                            <path d="M43.0676365,11.7876649 C46.3680791,11.7876649 49.0437395,9.14888373 49.0437395,5.89383245 C49.0437395,2.63878118 46.3680791,0 43.0676365,0 C39.7670931,0 37.0914326,2.63878118 37.0914326,5.89383245 C37.0914326,9.14888373 39.7670931,11.7876649 43.0676365,11.7876649 L43.0676365,11.7876649 Z M43.0676365,10.0439797 C45.391628,10.0439797 47.2756849,8.1858913 47.2756849,5.89383245 C47.2756849,3.60175705 45.391628,1.74368516 43.0676365,1.74368516 C40.7435273,1.74368516 38.8593865,3.60177361 38.8593865,5.89383245 C38.8593865,8.18590786 40.7435441,10.0439797 43.0676365,10.0439797 L43.0676365,10.0439797 Z" id="_347398400"></path>
                            <path d="M67.3400638,5.71938607 L70.5809849,11.4733334 L72.5935934,11.4733334 L70.0706425,7.02144634 L70.0704333,7.02134318 C71.1899644,6.41312357 71.9485263,5.2383583 71.9485263,3.88864793 C71.9485263,1.91461534 70.32587,0.314327797 68.3242519,0.314327797 L63.8158914,0.314327797 L63.788277,0.314327797 L63.7606626,0.314327797 L63.7330482,0.314327797 L63.7054338,0.314327797 L63.677715,0.314327797 L63.6501006,0.314327797 L63.6224862,0.314327797 L63.5948718,0.314327797 L63.5672574,0.314327797 L63.539643,0.314327797 L63.5120286,0.314327797 L63.4844142,0.314327797 L63.4567998,0.314327797 L63.4291854,0.314327797 L63.401571,0.314327797 L63.3739566,0.314327797 L63.3462377,0.314327797 L63.3186233,0.314327797 L63.2910089,0.314327797 L63.2633945,0.314327797 L63.2357801,0.314327797 L63.2081657,0.314327797 L63.1805513,0.314327797 L63.1529369,0.314327797 L63.1253225,0.314327797 L63.0976036,0.314327797 L63.0699892,0.314327797 L63.0423748,0.314327797 L63.0147604,0.314327797 L62.987146,0.314327797 L62.9595316,0.314327797 L62.9319172,0.314327797 L62.9043028,0.314327797 L62.8766884,0.314327797 L62.8489695,0.314327797 L62.8213551,0.314327797 L62.7937407,0.314327797 L62.7661263,0.314327797 L62.7385119,0.314327797 L62.7108975,0.314327797 L62.6832831,0.314327797 L62.6556687,0.314327797 L62.6280543,0.314327797 L62.6004399,0.314327797 L62.5728255,0.314327797 L62.5452111,0.314327797 L62.5174922,0.314327797 L62.4898778,0.314327797 L62.4622634,0.314327797 L62.434649,0.314327797 L62.4070346,0.314327797 L62.3794202,0.314327797 L62.3518058,0.314327797 L62.3241914,0.314327797 L62.296577,0.314327797 L62.2688581,0.314327797 L62.2412437,0.314327797 L62.2136293,0.314327797 L62.1860149,0.314327797 L62.1584005,0.314327797 L62.1307861,0.314327797 L62.1031717,0.314327797 L62.0755573,0.314327797 L62.0479429,0.314327797 L62.0479429,0.34156158 L62.0479429,0.368795363 L62.0479429,0.396029146 L62.0479429,0.423262929 L62.0479429,0.450496712 L62.0479429,0.47783355 L62.0479429,0.505067333 L62.0479429,0.532301116 L62.0479429,0.559534899 L62.0479429,0.586768682 L62.0479429,0.614002466 L62.0479429,0.641236249 L62.0479429,0.668470032 L62.0479429,0.695703815 L62.0479429,0.722937598 L62.0479429,0.750171382 L62.0479429,0.777508219 L62.0479429,0.804742002 L62.0479429,0.831975785 L62.0479429,0.859209568 L62.0479429,0.886443352 L62.0479429,0.913677135 L62.0479429,0.940910918 L62.0479429,0.968144701 L62.0479429,0.995378484 L62.0479429,1.02261227 L62.0479429,1.04984605 L62.0479429,1.07718289 L62.0479429,1.10441667 L62.0479429,1.13165045 L62.0479429,1.15888424 L62.0479429,1.18611802 L62.0479429,1.2133518 L62.0479429,1.24058559 L62.0479429,1.26781937 L62.0479429,1.29505315 L62.0479429,1.32238999 L62.0479429,1.34962377 L62.0479429,1.37685756 L62.0479429,1.40409134 L62.0479429,1.43132512 L62.0479429,1.45855891 L62.0479429,1.48579269 L62.0479429,1.51302647 L62.0479429,1.54026026 L62.0479429,1.56749404 L62.0479429,1.59472782 L62.0479429,1.62206466 L62.0479429,1.64929844 L62.0479429,1.67653223 L62.0479429,1.70376601 L62.0479429,1.73099979 L62.0479429,1.75823358 L62.0479429,1.78546736 L62.0479429,1.81270114 L62.0479429,1.83993493 L62.0479429,1.86716871 L62.0479429,1.89450555 L62.0479429,1.92173933 L62.0479429,1.94897311 L62.0479429,1.9762069 L62.0479429,2.00344068 L62.0479429,2.03067446 L62.0479429,2.05790824 L62.0479429,11.4733574 L63.81588,11.4733574 L63.81588,2.05790824 L68.3242405,2.05790824 C69.3494226,2.05790824 70.1804602,2.87760247 70.1804602,3.8886592 C70.1804602,4.89971096 69.3494159,5.71941015 68.3242405,5.71941015 L67.3400615,5.71941015 L67.3400638,5.71938607 Z" id="_347398232"></path>
                            <path d="M78.1091989,2.05790073 L73.9435194,2.05790073 L72.9820386,0.314331545 L72.9820386,0.314331545 L78.1092005,0.314331545 C81.2336995,0.314331545 83.7666798,2.81229975 83.7666798,5.89383245 C83.7666798,8.97526575 81.2336995,11.4733334 78.1092005,11.4733334 L73.9435211,11.4733334 L72.9820402,9.72976418 L72.9820402,9.72966102 L78.1092022,9.72966102 C80.2572669,9.72966102 81.9986436,8.01228614 81.9986436,5.89382871 C81.9986436,3.77527186 80.2572669,2.05789698 78.1092022,2.05789698 L78.1091989,2.05790073 Z" id="_347398064"></path>
                            <path d="M30.5916482,9.72976418 L31.553129,11.4733334 L31.5758271,11.4733334 L32.459799,11.4733334 C34.4614204,11.4733334 36.0840734,9.8730425 36.0840734,7.89901323 C36.0840734,6.74611961 35.5305321,5.72092691 34.6713483,5.0673287 C35.1110864,4.56360793 35.3769775,3.90803811 35.3769775,3.19129691 C35.3769775,1.6023536 34.0709442,0.314314977 32.4597873,0.314314977 L25.741455,0.314314977 L25.741455,11.4733334 L27.5095097,11.4733334 L27.5095097,2.05788416 L32.4598041,2.05788416 C33.0945149,2.05788416 33.6089363,2.56531786 33.6089363,3.191282 C33.6089363,3.81714175 33.0945149,4.32457546 32.4598041,4.32457546 L31.4756251,4.32457546 L32.4598041,6.06826062 C33.4849861,6.06826062 34.3161413,6.88785046 34.3161413,7.89901157 C34.3161413,8.91006333 33.4849912,9.72976252 32.4598041,9.72976252 L31.5758322,9.72976252 L30.5916532,9.72976252 L30.5916482,9.72976418 Z" id="_347397896"></path>
                            <polygon id="_347397728" points="59.0692175 11.4733334 54.8069564 3.92185432 50.5446952 11.4733334 48.5213349 11.4733334 53.7952762 2.12939243 53.7952762 2.12939243 54.8069564 0.336913977 54.8069564 0.336913977 54.8069564 0.336913977 55.8186365 2.12939243 55.8186365 2.12939243 61.0925778 11.4733334"></polygon>
                            <path d="M6.71833222,2.05790073 L1.76793707,2.05790073 L1.76793707,11.4733499 L0,11.4733499 L0,0.314331545 L6.71833222,0.314331545 C8.32937823,0.314331545 9.63552247,1.60236354 9.63552247,3.19131348 C9.63552247,3.90805634 9.36962968,4.5636245 8.92989321,5.06734527 C9.78907542,5.72095507 10.3426183,6.74613286 10.3426183,7.8990298 C10.3426183,9.87306239 8.71996203,11.4733499 6.71834398,11.4733499 L5.83437209,11.4733499 L5.81167396,11.4733499 L4.85019312,9.72978075 L5.83437209,9.72978075 L6.71834398,9.72978075 C7.74352606,9.72978075 8.57468127,8.91008652 8.57468127,7.8990298 C8.57468127,6.88787532 7.7435311,6.06827884 6.71834398,6.06827884 L5.73416502,4.32459368 L6.71834398,4.32459368 C7.35295067,4.32459368 7.8674762,3.81715998 7.8674762,3.19130022 C7.8674762,2.56533775 7.35295067,2.05790238 6.71834398,2.05790238 L6.71833222,2.05790073 Z" id="_347397560"></path>
                            <polygon id="_347397392" points="24.3424822 0.79906187 24.3392902 0.798752045 24.6877168 0.314218882 14.7746123 0.314218882 15.7360948 2.05790073 21.2555306 2.05790073 15.7396563 9.72976418 15.7350532 9.72976418 14.4766017 11.4733334 24.3250105 11.4733334 23.3635615 9.72976418 17.8969273 9.72976418 23.4339524 2.05790073 23.4352964 2.05604509"></polygon>
                        </g>
                    </g>
                </g>
            </g>
        </g>
    </g>
</svg>