<!--<svg xmlns="http://www.w3.org/2000/svg" xmlns:xlink="http://www.w3.org/1999/xlink" width="60" height="60" viewBox="0 0 60 60">
  <defs>
    <circle id="tw-icon-a" cx="30" cy="30" r="30"/>
  </defs>
  <g fill="none" fill-rule="evenodd">
    <use fill="#001724" xlink:href="#tw-icon-a"/>
    <circle cx="30" cy="30" r="29" stroke="#00FA9A" stroke-width="2"/>
    <g fill="#00FA9A" fill-rule="nonzero" transform="translate(17 19)">
      <path d="M27,2.60361538 C26.0066579,3.04615385 24.9398912,3.34484615 23.8182671,3.47769231 C24.9618342,2.79061538 25.8403976,1.70246154 26.2547824,0.406153846 C25.1837959,1.04161538 23.9988747,1.50530769 22.737153,1.75323077 C21.7260878,0.674384615 20.2862903,0 18.692048,0 C15.6326894,0 13.153976,2.486 13.153976,5.55330769 C13.153976,5.98823077 13.2020818,6.413 13.2966054,6.81915385 C8.6927982,6.58730769 4.61140285,4.37630769 1.87865716,1.01623077 C1.40266317,1.837 1.1292198,2.79061538 1.1292198,3.80853846 C1.1292198,5.73607692 2.10737059,7.43515385 3.59274194,8.43192308 C2.68548387,8.40230769 1.83139535,8.15353846 1.08448987,7.73723077 C1.08364591,7.76007692 1.08364591,7.78461538 1.08364591,7.80661538 C1.08364591,10.4982308 2.99268567,12.7430769 5.52710053,13.2533077 C5.06292198,13.3793846 4.57342461,13.4479231 4.06789197,13.4479231 C3.71005251,13.4479231 3.36402851,13.4132308 3.02644411,13.3489231 C3.73030758,15.554 5.77691298,17.16 8.19992498,17.2056923 C6.30523256,18.6949231 3.91682296,19.5842308 1.32164291,19.5842308 C0.874343586,19.5842308 0.432951988,19.558 0,19.5063846 C2.45086272,21.0802308 5.36252813,22 8.49109152,22 C18.6793886,22 24.252063,13.5376154 24.252063,6.19807692 C24.252063,5.95776923 24.2453113,5.71746154 24.2351838,5.47884615 C25.3179857,4.69615385 26.2564704,3.71884615 27,2.60361538 Z"/>
    </g>
  </g>
</svg>-->
<svg xmlns="http://www.w3.org/2000/svg" width="60" height="60" xmlns:xlink="http://www.w3.org/1999/xlink" viewBox="0 0 60 60">
  <defs>
    <circle id="a" cx="30" cy="30" r="30"/>
  </defs>
  <g fill="none" fill-rule="evenodd">
    <use fill="#001724" xlink:href="#a"/>
    <circle cx="30" cy="30" r="29" stroke="#00FA9A" stroke-width="2"/>
    <path fill="#00FA9A" fill-rule="nonzero" d="M44 21.604c-.993.442-2.06.74-3.182.874 1.144-.687 2.022-1.776 2.437-3.072-1.07.636-2.256 1.1-3.518 1.347-1.01-1.08-2.45-1.753-4.045-1.753-3.06 0-5.538 2.486-5.538 5.553 0 .435.048.86.143 1.266-4.604-.233-8.686-2.444-11.418-5.804-.477.82-.75 1.775-.75 2.793 0 1.926.977 3.625 2.463 4.622-.908-.03-1.762-.278-2.51-.695v.07c0 2.69 1.91 4.936 4.444 5.446-.464.126-.954.195-1.46.195-.357 0-.703-.035-1.04-.1.703 2.206 2.75 3.812 5.173 3.858-1.895 1.49-4.283 2.378-6.878 2.378-.448 0-.89-.026-1.322-.078C19.45 40.08 22.363 41 25.49 41c10.19 0 15.762-8.462 15.762-15.802 0-.24-.007-.48-.017-.72 1.083-.782 2.02-1.76 2.765-2.874z"/>
  </g>
</svg>